<?xml version="1.0" encoding="UTF-8" standalone="no"?>
<!DOCTYPE svg PUBLIC "-//W3C//DTD SVG 1.1//EN" "http://www.w3.org/Graphics/SVG/1.1/DTD/svg11.dtd">
<svg width="100%" height="100%" viewBox="0 0 1888 1416" version="1.1" xmlns="http://www.w3.org/2000/svg" xmlns:xlink="http://www.w3.org/1999/xlink" xml:space="preserve" xmlns:serif="http://www.serif.com/" style="fill-rule:evenodd;clip-rule:evenodd;stroke-linecap:round;stroke-linejoin:round;stroke-miterlimit:1.5;">
    <g transform="matrix(1,0,0,1,-422,-632.691)">
        <path d="M1128.7,926.424C1128.7,924.723 1129.45,923.559 1129.91,921.936C1130.67,919.227 1131.17,916.414 1132.16,913.761C1132.96,911.616 1134.52,909.673 1135.07,907.435C1135.6,905.304 1134.85,902.808 1135.14,900.629C1135.79,895.871 1136.91,890.404 1139.6,886.347" style="fill:none;stroke:black;stroke-width:1px;"/>
    </g>
    <g transform="matrix(1,0,0,1,-422,-632.691)">
        <path d="M1124.87,904.519C1124.87,904.56 1124.52,903.914 1124.41,903.74C1124.09,903.223 1123.75,902.596 1123.5,902.038C1122.67,900.193 1122.03,897.983 1122.03,895.952C1122.03,892.751 1121.74,889.456 1122.77,886.363C1123.58,883.964 1125.35,881.669 1125.94,879.318" style="fill:none;stroke:black;stroke-width:1px;"/>
    </g>
    <g transform="matrix(1,0,0,1,-422,-632.691)">
        <path d="M1133.17,867.539C1133.17,862.108 1134.96,857.901 1136.82,852.918C1137.55,850.963 1138.27,848.733 1139.58,847.068C1140.53,845.867 1142.49,842.418 1144.29,842.418" style="fill:none;stroke:black;stroke-width:1px;"/>
    </g>
    <g transform="matrix(1,0,0,1,-422,-632.691)">
        <path d="M1121.13,838.534C1121.67,837.968 1123.42,838.857 1124.12,838.33C1127.55,835.736 1131.15,833.422 1134.45,830.601C1139.73,826.087 1143.92,820.585 1149.18,816.092C1151.24,814.334 1153.48,813.467 1155.79,812.179C1157.43,811.259 1158.7,809.69 1160.36,808.857" style="fill:none;stroke:black;stroke-width:1px;"/>
    </g>
    <g transform="matrix(1,0,0,1,-422,-632.691)">
        <path d="M1181.58,784.46C1181.25,784.46 1182.19,784.466 1182.23,784.46C1182.72,784.393 1183.28,783.933 1183.68,783.714C1185,782.975 1186.35,782.271 1187.67,781.504C1191.73,779.134 1196.38,776.92 1200.92,775.618C1209.81,773.07 1218.52,773.459 1227.12,776.344C1229.24,777.054 1231.76,777.611 1233.39,779.24C1235.27,781.116 1235.76,784.152 1237.55,785.937" style="fill:none;stroke:black;stroke-width:1px;"/>
    </g>
    <g transform="matrix(1,0,0,1,-422,-632.691)">
        <path d="M1194.63,785.558C1194.4,785.558 1195.09,785.558 1195.32,785.558L1203.11,785.558C1206.04,785.558 1208.35,785.565 1210.77,787.324C1211.79,788.057 1213.71,790.854 1214.99,790.854" style="fill:none;stroke:black;stroke-width:1px;"/>
    </g>
    <g transform="matrix(1,0,0,1,-422,-632.691)">
        <path d="M1203.74,762.001C1206.61,759.958 1209.71,758.696 1212.88,757.202C1218.29,754.658 1223.45,751.867 1229.32,750.498C1232.43,749.77 1235.78,750.093 1238.96,750.093C1252.41,750.093 1265.49,754.59 1270.99,767.988C1272.05,770.583 1275.13,774.591 1275.13,777.467" style="fill:none;stroke:black;stroke-width:1px;"/>
    </g>
    <g transform="matrix(1,0,0,1,-422,-632.691)">
        <path d="M1215.92,764.57C1220.74,764.57 1225.61,763.173 1230.43,762.667C1238.96,761.773 1248.35,764.41 1255.05,769.953C1258.08,772.46 1259.51,776.369 1261.19,779.743" style="fill:none;stroke:black;stroke-width:1px;"/>
    </g>
    <g transform="matrix(1,0,0,1,-422,-632.691)">
        <path d="M1144.62,797.598C1146.44,797.598 1147.82,795.603 1149.18,794.554C1153.34,791.36 1155.87,787.49 1159.54,783.817C1161.17,782.183 1163.29,781.071 1164.99,779.49C1174.31,770.829 1184.53,764.446 1196.6,760.402" style="fill:none;stroke:black;stroke-width:1px;"/>
    </g>
    <g transform="matrix(1,0,0,1,-422,-632.691)">
        <path d="M1257.44,741.041C1270.85,741.041 1282.82,750.279 1290.79,760.256C1293.12,763.176 1296.72,766.953 1298.04,770.498C1298.5,771.709 1298.54,773.034 1298.54,774.309C1298.54,774.928 1299.44,776.164 1298.82,776.145C1297.92,776.118 1297.35,775.084 1296.65,774.502" style="fill:none;stroke:black;stroke-width:1px;"/>
    </g>
    <g transform="matrix(1,0,0,1,-422,-632.691)">
        <path d="M1296.17,752.85C1295.59,752.85 1297.32,752.85 1297.89,752.85C1299.04,752.85 1300.01,753.081 1301.13,753.329C1304.01,753.969 1307.1,755.068 1309.43,756.929C1316.97,762.949 1321.97,769.161 1325.91,777.802C1327.01,780.212 1327.5,782.607 1327.5,785.239C1327.5,785.966 1328.36,787.088 1327.71,787.412C1327.38,787.573 1327.01,787.2 1326.67,787.073" style="fill:none;stroke:black;stroke-width:1px;"/>
    </g>
    <g transform="matrix(1,0,0,1,-422,-632.691)">
        <path d="M1335.86,773.429C1342.66,774.749 1346.84,782.522 1348.95,788.451C1349.66,790.427 1350.18,792.424 1350.18,794.515C1350.18,794.702 1350.34,796.279 1350.19,796.279" style="fill:none;stroke:black;stroke-width:1px;"/>
    </g>
    <g transform="matrix(1,0,0,1,-422,-632.691)">
        <path d="M1368.63,809.123C1372.72,809.123 1376.83,813.109 1379.68,815.613C1387.08,822.114 1391.69,831.095 1395.8,839.875C1397,842.443 1399.27,845.569 1399.27,848.529" style="fill:none;stroke:black;stroke-width:1px;"/>
    </g>
    <g transform="matrix(1,0,0,1,-422,-632.691)">
        <path d="M1365.55,821.2C1369.99,821.2 1373.86,826.3 1376.54,829.208C1383.42,836.676 1384.89,846.203 1387.74,855.515C1388.52,858.042 1389.69,860.417 1390.53,862.926" style="fill:none;stroke:black;stroke-width:1px;"/>
    </g>
    <g transform="matrix(1,0,0,1,-422,-632.691)">
        <path d="M1379.18,865.922C1379.18,872.56 1379.84,879.615 1378.39,886.12C1377.83,888.631 1376.69,891.09 1375.55,893.372C1375.03,894.394 1373.83,896.04 1373.83,897.202" style="fill:none;stroke:black;stroke-width:1px;"/>
    </g>
    <g transform="matrix(1,0,0,1,-422,-632.691)">
        <path d="M1370.72,917.444C1371.72,917.444 1373.2,920.627 1373.64,921.341C1376.29,925.665 1374.42,931.031 1376.63,935.483" style="fill:none;stroke:black;stroke-width:1px;"/>
    </g>
    <g transform="matrix(1,0,0,1,-422,-632.691)">
        <path d="M1826.43,953.611C1840.26,953.611 1853.97,948.614 1866.96,944.27C1872.02,942.579 1880.12,940.203 1883.66,935.764" style="fill:none;stroke:black;stroke-width:1px;"/>
    </g>
    <g transform="matrix(1,0,0,1,-422,-632.691)">
        <path d="M1823.45,941.836C1834.13,938.237 1845.03,935.952 1855.4,931.073C1858.02,929.841 1861.23,928.408 1863.49,926.588C1865.92,924.637 1868.83,921.56 1871.86,920.539" style="fill:none;stroke:black;stroke-width:1px;"/>
    </g>
    <g transform="matrix(1,0,0,1,-422,-632.691)">
        <path d="M1856.77,965.52C1864.67,965.52 1873.5,965.023 1881.14,963.065C1885.08,962.055 1889.56,962.019 1893.31,960.352C1897.78,958.367 1900.39,953.75 1904.61,952.053" style="fill:none;stroke:black;stroke-width:1px;"/>
    </g>
    <g transform="matrix(1,0,0,1,-422,-632.691)">
        <path d="M1875.81,977.298C1882.12,977.298 1889.99,978.709 1896.05,976.848C1899.4,975.817 1902.85,973.735 1905.86,971.964C1909.25,969.97 1914.09,968.015 1914.97,963.628" style="fill:none;stroke:black;stroke-width:1px;"/>
    </g>
    <g transform="matrix(1,0,0,1,-422,-632.691)">
        <path d="M1883.26,999.448C1887.16,999.448 1890.02,1006.49 1891.69,1009.45C1893.23,1012.18 1894.89,1014.91 1895.81,1017.93C1898.55,1026.98 1896.56,1038.02 1896.04,1047.18C1895.81,1051.2 1893.87,1055.92 1893.87,1059.7" style="fill:none;stroke:black;stroke-width:1px;"/>
    </g>
    <g transform="matrix(1,0,0,1,-422,-632.691)">
        <path d="M1909.76,1050.8C1912.44,1050.8 1915.51,1048.44 1917.78,1047.12C1918.13,1046.91 1920.39,1045.99 1920.39,1045.48" style="fill:none;stroke:black;stroke-width:1px;"/>
    </g>
    <g transform="matrix(1,0,0,1,-422,-632.691)">
        <path d="M1903.96,1032.65C1906.13,1032.65 1908.44,1030.35 1910.14,1029.21C1916,1025.29 1919.72,1021.41 1923.43,1015.48C1924.47,1013.83 1926.16,1012.59 1927.02,1010.86" style="fill:none;stroke:black;stroke-width:1px;"/>
    </g>
    <g transform="matrix(1,0,0,1,-422,-632.691)">
        <path d="M1903.61,1078.55C1912.13,1078.55 1915.36,1073.78 1920.9,1068.22C1922.65,1066.46 1924.81,1064.06 1925.91,1061.85" style="fill:none;stroke:black;stroke-width:1px;"/>
    </g>
    <g transform="matrix(1,0,0,1,-422,-632.691)">
        <path d="M1855.68,888.673C1855.68,881.473 1859.74,871.75 1853.76,865.768" style="fill:none;stroke:black;stroke-width:1px;"/>
    </g>
    <g transform="matrix(1,0,0,1,-422,-632.691)">
        <path d="M1864.89,896.483C1864.89,889.415 1875.77,877.946 1869.51,871.694" style="fill:none;stroke:black;stroke-width:1px;"/>
    </g>
    <g transform="matrix(1,0,0,1,-422,-632.691)">
        <path d="M1873.29,902.618C1874.46,902.677 1877.84,897.961 1878.56,897.174C1882.45,892.914 1887.77,886.125 1887.77,880.027" style="fill:none;stroke:black;stroke-width:1px;"/>
    </g>
    <g transform="matrix(1,0,0,1,-422,-632.691)">
        <path d="M1883.43,910.228C1891.04,906.825 1898.15,900.038 1901.93,892.421" style="fill:none;stroke:black;stroke-width:1px;"/>
    </g>
    <g transform="matrix(1,0,0,1,-422,-632.691)">
        <path d="M1819.1,929.438C1824.92,929.438 1830.55,927.614 1836.14,926.216C1842.44,924.643 1848.17,923.545 1854.03,920.6C1858.74,918.236 1862.73,914.028 1867.08,911.115" style="fill:none;stroke:black;stroke-width:1px;"/>
    </g>
    <g transform="matrix(1,0,0,1,-422,-632.691)">
        <path d="M1830.54,905.5C1832.9,904.67 1836.07,904.853 1838.56,904.617C1844,904.103 1850.24,902.959 1855.76,903.775C1858.14,904.127 1859.93,905.794 1862.19,906.356" style="fill:none;stroke:black;stroke-width:1px;"/>
    </g>
    <g transform="matrix(1,0,0,1,-422,-632.691)">
        <path d="M1829.43,896.62C1831.69,896.62 1834.05,895.009 1836.3,894.651C1838.63,894.282 1841.08,894.223 1843.41,893.783C1848.22,892.875 1853.28,894.573 1858.01,894.573" style="fill:none;stroke:black;stroke-width:1px;"/>
    </g>
    <g transform="matrix(1,0,0,1,-422,-632.691)">
        <path d="M1749.63,940.97C1749.63,935.364 1748.41,929.901 1748.41,924.214C1748.41,922.533 1747.92,919.287 1748.63,917.608C1749.58,915.315 1751.29,913.76 1752.67,911.899" style="fill:none;stroke:black;stroke-width:1px;"/>
    </g>
    <g transform="matrix(1,0,0,1,-422,-632.691)">
        <path d="M1775.76,941.496C1775.77,940.887 1773.92,939.144 1773.57,938.685C1771.25,935.649 1768.83,932.549 1766.62,929.458C1762.74,924.025 1764.36,912.865 1766.27,907.098" style="fill:none;stroke:black;stroke-width:1px;"/>
    </g>
    <g transform="matrix(1,0,0,1,-422,-632.691)">
        <path d="M1791.62,934.24C1791.62,935.38 1790.43,932.556 1790.21,932.01C1789.38,929.937 1787.93,928.086 1786.98,926.034C1785.12,921.994 1784.03,918.937 1784.03,914.538C1784.03,913.684 1784.41,907.196 1783.07,907.196" style="fill:none;stroke:black;stroke-width:1px;"/>
    </g>
    <g transform="matrix(1,0,0,1,-422,-632.691)">
        <path d="M1727.11,942.781C1727.55,942.343 1727.17,940.175 1727.09,939.652C1726.64,936.99 1726.03,934.046 1726.03,931.279C1726.03,926.3 1726.92,921.88 1729.91,917.804C1730.77,916.64 1733,916.081 1734.17,915.141" style="fill:none;stroke:black;stroke-width:1px;"/>
    </g>
    <g transform="matrix(1,0,0,1,-422,-632.691)">
        <path d="M1712.64,960.368C1706.76,960.368 1700.29,959.453 1694.77,961.761C1692.41,962.745 1690.36,964.899 1688.18,966.262C1686.09,967.569 1682.54,968.363 1681.33,970.751" style="fill:none;stroke:black;stroke-width:1px;"/>
    </g>
    <g transform="matrix(1,0,0,1,-422,-632.691)">
        <path d="M1700.81,979.919C1690.3,979.919 1682.58,984.017 1677.89,993.36C1677.19,994.742 1675.18,997.244 1675.18,998.811" style="fill:none;stroke:black;stroke-width:1px;"/>
    </g>
    <g transform="matrix(1,0,0,1,-422,-632.691)">
        <path d="M1681.4,1000.53C1681.4,1002.73 1677.95,1005.64 1676.7,1007.29C1674.64,1010.01 1673.67,1013.57 1673.19,1016.9" style="fill:none;stroke:black;stroke-width:1px;"/>
    </g>
    <g transform="matrix(1,0,0,1,-422,-632.691)">
        <path d="M1777.32,1099.39C1780.94,1099.39 1783.94,1098.36 1787.15,1096.74C1792.33,1094.12 1797.18,1089.46 1803.61,1090.8C1810.38,1092.2 1817.32,1095.49 1823.46,1098.56C1829.47,1101.57 1833.66,1105.86 1840.64,1105.86" style="fill:none;stroke:black;stroke-width:1px;"/>
    </g>
    <g transform="matrix(1,0,0,1,-422,-632.691)">
        <path d="M1781.26,1101.08C1783.34,1101.08 1785.64,1100.78 1787.69,1101.08C1791.48,1101.64 1795.04,1103.85 1798.89,1104.49C1805.86,1105.65 1813.31,1105.21 1820.44,1105.21C1823.54,1105.21 1826.96,1104.84 1829.97,1105.41C1830.67,1105.54 1832.44,1105.62 1832.58,1104.93" style="fill:none;stroke:black;stroke-width:1px;"/>
    </g>
    <g transform="matrix(1,0,0,1,-422,-632.691)">
        <path d="M1803.23,1090.37C1800.55,1090.37 1799.78,1094.63 1799.78,1096.87C1799.78,1100.66 1803.99,1105.41 1807.69,1105.41" style="fill:none;stroke:black;stroke-width:1px;"/>
    </g>
    <g transform="matrix(0.888345,0,0,0.893928,-219.375,-515.448)">
        <path d="M1814.74,1105.32C1818.07,1105.32 1819.43,1101.39 1820.89,1099.14C1821.13,1098.78 1821.67,1095.83 1821.35,1095.83" style="fill:none;stroke:black;stroke-width:1.12px;"/>
    </g>
    <g transform="matrix(1,0,0,1,-422,-632.691)">
        <path d="M1684.98,1086.75C1689.06,1087.88 1692.56,1090.77 1696.86,1091.31C1701.81,1091.92 1708.05,1092.59 1713.03,1091.97C1716.12,1091.58 1719.39,1091.02 1722.47,1091.02" style="fill:none;stroke:black;stroke-width:1px;"/>
    </g>
    <g transform="matrix(1,0,0,1,-422,-632.691)">
        <path d="M1682.13,1084.97C1683.77,1084.97 1686.07,1082.55 1687.45,1081.63C1689.64,1080.17 1693.08,1079.48 1695.56,1078.7C1696.87,1078.28 1698.56,1079.02 1699.85,1078.57C1700.68,1078.28 1703.97,1078.01 1704.84,1078.44C1707.41,1079.72 1710.72,1080.15 1713.36,1081.48C1715.67,1082.63 1716.95,1084.75 1719.04,1086.11C1720.13,1086.83 1721.96,1090.45 1722.88,1090.45" style="fill:none;stroke:black;stroke-width:1px;"/>
    </g>
    <g transform="matrix(1,0,0,1,-422,-632.691)">
        <path d="M1698.36,1078.65C1693.36,1078.65 1694.47,1086.54 1696.54,1089.29C1697.03,1089.94 1700.42,1091.97 1700.42,1092.37" style="fill:none;stroke:black;stroke-width:1px;"/>
    </g>
    <g transform="matrix(1,0,0,1,-422,-632.691)">
        <path d="M1709.36,1091.83C1712,1091.83 1715.55,1089.52 1716.32,1087.03C1716.48,1086.52 1716.88,1084.5 1716.61,1083.97C1716.51,1083.76 1715.49,1082.63 1716.22,1082.63" style="fill:none;stroke:black;stroke-width:1px;"/>
    </g>
    <g transform="matrix(1,0,0,1,-422,-632.691)">
        <path d="M1654.3,1085.54C1655.42,1085.54 1657.13,1086.14 1658.22,1085.76C1659.14,1085.44 1659.5,1084.38 1660.1,1083.8C1660.41,1083.51 1661.44,1084.08 1661.8,1084.08" style="fill:none;stroke:black;stroke-width:1px;"/>
    </g>
    <g transform="matrix(1,0,0,1,-422,-632.691)">
        <path d="M1664.04,1073.6C1663.1,1073.6 1662.33,1073.43 1661.5,1073.17C1661.36,1073.13 1660.66,1073.31 1660.82,1072.98C1661.97,1070.64 1665.55,1071.19 1667.66,1070.66C1669.72,1070.14 1678.31,1068.56 1680.39,1068.56C1681.99,1068.56 1689.32,1069.34 1691.42,1069.56C1693.06,1069.74 1694.74,1069.52 1696.31,1069.91C1697.73,1070.26 1699.7,1071.15 1700.99,1071.8C1701.09,1071.85 1702.43,1072.05 1702.43,1071.88" style="fill:none;stroke:black;stroke-width:1px;"/>
    </g>
    <g transform="matrix(1,0,0,1,-422,-632.691)">
        <path d="M1700.13,1071.72C1701.32,1071.72 1703.25,1072.29 1704.41,1072.45C1707.2,1072.83 1712.75,1076.12 1715.1,1077.65C1716.49,1078.56 1719.39,1080.52 1720.56,1081.7C1720.83,1081.96 1722.6,1084.3 1722.78,1084.67C1723.58,1086.27 1726.16,1093.21 1726.28,1094.68C1726.45,1096.77 1727.13,1098.24 1726.71,1100.43C1726.16,1103.3 1725.4,1108.73 1724.53,1110.44C1722.76,1113.96 1721.96,1118.54 1719.09,1121.39C1718.26,1122.2 1715.44,1125.75 1714.61,1126.56C1714.4,1126.77 1710.93,1129.33 1710.16,1130.1C1709.32,1130.92 1707.61,1131.22 1706.58,1131.82C1702.49,1134.2 1697.97,1134.94 1693.75,1136.42C1693.18,1136.61 1684.52,1136.23 1683.44,1136.07C1680.69,1135.66 1676.34,1134.82 1673.75,1133.79C1671.7,1132.97 1669.04,1131.7 1667.53,1130.19C1666.82,1129.49 1665.08,1128.39 1665.05,1128.3C1665.03,1128.26 1663.21,1126.64 1662.74,1126.05C1661.14,1124.05 1658.49,1121.91 1657.37,1119.68C1656.59,1118.11 1655.88,1116.55 1655.1,1114.98C1654.35,1113.48 1654.01,1112.58 1653.64,1110.82C1653.42,1109.77 1653.44,1103.73 1653.44,1101.91C1653.44,1101.01 1652.78,1093.79 1652.78,1091.2C1652.78,1089.65 1653.11,1088.13 1653.74,1086.85C1653.83,1086.67 1653.96,1085.53 1654.08,1085.53" style="fill:none;stroke:black;stroke-width:1px;"/>
    </g>
    <g transform="matrix(1,0,0,1,-422,-632.691)">
        <path d="M1766.88,1091.63C1769.49,1087.46 1774.45,1086.31 1779.24,1084.67C1780.98,1084.08 1782.79,1083.85 1784.57,1083.4C1787.13,1082.75 1789.95,1082.61 1792.62,1082.61C1793.99,1082.61 1795.38,1082.65 1796.73,1082.65C1796.94,1082.65 1818.15,1085.5 1818.71,1085.5C1820.19,1085.5 1824.43,1086.93 1825.04,1087.08C1826.64,1087.48 1833.38,1091.38 1834.59,1092.61C1835.98,1094.03 1837.78,1095.54 1838.8,1097.28C1839.6,1098.64 1840.13,1099.47 1840.45,1101.15C1840.94,1103.75 1841.82,1106.43 1841.82,1109.14C1841.82,1110.89 1841.68,1112.64 1841.38,1114.41C1840.78,1117.93 1840.44,1120.6 1839.2,1124C1838.87,1124.9 1837.87,1127 1837.64,1127.92C1837.04,1130.27 1834.24,1133.51 1832.73,1135.51C1831.38,1137.3 1827.6,1140.55 1826.9,1141.24C1825.59,1142.54 1824.14,1143.44 1822.52,1144.25C1820.8,1145.1 1818.57,1146.47 1816.68,1146.83C1815.83,1146.99 1814.08,1147.36 1813.59,1147.87C1813.48,1147.98 1804.78,1150.37 1804.62,1150.37C1803.55,1150.37 1799.79,1150.98 1795.6,1150.32C1793.79,1150.04 1789.42,1148.82 1787.69,1148.13C1785.85,1147.39 1783.87,1146.65 1782.3,1145.51C1780.92,1144.51 1778.68,1144.32 1777.43,1143.08C1776.56,1142.2 1774.83,1139.65 1773.82,1138.99C1772.42,1138.07 1771.12,1134.98 1770.77,1134.46C1769.87,1133.1 1769.09,1131.63 1768.2,1130.29C1767.66,1129.48 1765.38,1125.7 1764.86,1124.81C1763.84,1123.08 1762.97,1118.65 1762.72,1117.01C1762.44,1115.09 1761.69,1111.99 1761.37,1110.08C1761.02,1108.01 1761.35,1107.11 1761.35,1104.99C1761.35,1104.49 1761.16,1103.75 1761.31,1103.26C1761.98,1101.1 1762.32,1098.14 1763.73,1096.26C1764.46,1095.27 1766.04,1092.48 1766.88,1091.63Z" style="fill:none;stroke:black;stroke-width:1px;"/>
    </g>
    <g transform="matrix(1,0,0,1,-422,-632.691)">
        <path d="M1360.32,1016.01C1360.32,1014.87 1360.83,1013.91 1361.09,1012.86C1361.47,1011.33 1361.64,1009.41 1361.64,1007.81" style="fill:none;stroke:black;stroke-width:1px;"/>
    </g>
    <g transform="matrix(1,0,0,1,-422,-632.691)">
        <path d="M1373.14,1002.08C1373.14,1002.84 1373.78,1003.61 1374.04,1004.31C1374.5,1005.58 1375.19,1006.92 1375.19,1008.32C1375.19,1008.6 1375.3,1010.2 1375.08,1010.2" style="fill:none;stroke:black;stroke-width:1px;"/>
    </g>
    <g transform="matrix(1,0,0,1,-422,-632.691)">
        <path d="M1369.82,961.802C1369.82,961.093 1369.47,959.297 1369.96,958.784C1370.09,958.65 1371.24,958.793 1371.28,958.694C1371.51,958.008 1370.81,956.112 1371.28,955.599C1371.39,955.475 1371.73,955.702 1371.87,955.511C1372.28,954.958 1371.98,953.607 1372.36,953.198C1372.96,952.56 1373.39,951.206 1373.7,950.292C1374,949.373 1375.17,948.174 1375.71,947.658C1376,947.374 1375.48,946.308 1375.85,945.94C1376.14,945.65 1377.6,946.492 1377.94,946.134C1378.62,945.439 1378.89,945.102 1379.78,944.64C1380.12,944.464 1380.14,943.81 1380.49,943.625C1380.94,943.382 1381.5,944.67 1381.88,944.316C1382.03,944.178 1381.9,943.219 1382.03,942.963C1382.11,942.811 1382.46,943.015 1382.55,942.919C1382.97,942.462 1383,941.843 1383.39,941.452C1383.52,941.322 1383.98,941.541 1384.15,941.452C1385.51,940.759 1385.14,938.76 1384.9,937.49C1384.54,935.591 1385.51,934.195 1385.68,932.355C1385.72,931.949 1385.54,931 1385.74,930.606C1386.22,929.647 1387.24,929.727 1388.02,929.727C1388.4,929.727 1389.56,929.631 1389.56,930.108" style="fill:none;stroke:black;stroke-width:1px;"/>
    </g>
    <g transform="matrix(0.886097,0,0,0.886097,-278.157,-520.81)">
        <path d="M1225.32,949.902C1224.02,949.902 1222.84,951.835 1222.2,952.794C1220.82,954.86 1221.24,959.873 1221.76,962.344C1221.93,963.183 1222.14,964.402 1222.96,964.943C1224.39,965.877 1226.53,967.483 1228.38,966.905C1231.29,965.995 1234.14,963.117 1237.63,964.318C1241.55,965.668 1242.88,970.384 1247.17,971.732C1254.21,973.945 1260.33,969.27 1267.16,969.27C1270.71,969.27 1272.07,973.439 1275.94,970.857C1280.26,967.977 1280.39,960.954 1278.95,956.338C1278.23,954.045 1275.94,951.451 1274.44,949.633C1272.86,947.706 1270.87,946.038 1269.92,943.631C1268.46,939.979 1267.81,935.99 1266.85,932.214C1265.96,928.714 1267.1,924.337 1267.1,920.866" style="fill:none;stroke:black;stroke-width:1.13px;"/>
    </g>
    <g transform="matrix(1,0,0,1,-422,-632.691)">
        <path d="M1184.77,913.257C1187.45,912.286 1189.5,908.908 1191.98,908.125C1197.61,906.346 1203.12,903.367 1209.8,904.752C1211.79,905.164 1213.48,906.231 1215.42,906.72C1217.79,907.314 1220.18,908.672 1222.2,909.994C1222.53,910.211 1224.02,910.903 1224.02,911.313" style="fill:none;stroke:black;stroke-width:1px;"/>
    </g>
    <g transform="matrix(1,0,0,1,-422,-632.691)">
        <path d="M1187.55,915.259C1195.89,915.259 1203.69,916.533 1211.92,916.533C1213.31,916.533 1219.41,916.492 1219.41,914.886" style="fill:none;stroke:black;stroke-width:1px;"/>
    </g>
    <g transform="matrix(1,0,0,1,-422,-632.691)">
        <path d="M1209.17,916.405C1214.6,916.405 1216.56,905.232 1211.02,905.232" style="fill:none;stroke:black;stroke-width:1px;"/>
    </g>
    <g transform="matrix(1,0,0,1,-422,-632.691)">
        <path d="M1195.66,906.643C1192.43,908.432 1193.28,914.793 1196.58,914.793" style="fill:none;stroke:black;stroke-width:1px;"/>
    </g>
    <g transform="matrix(1,0,0,1,-422,-632.691)">
        <path d="M1281.21,912.798C1283.62,912.798 1285.9,912.93 1288.12,912.225C1292.87,910.717 1297.59,905.345 1303.36,907.144C1307.4,908.4 1311.12,910.328 1314.9,912.221C1316.8,913.169 1318.46,915.089 1320.36,916.036C1322.48,917.099 1322.93,920.223 1325.52,920.223" style="fill:none;stroke:black;stroke-width:1px;"/>
    </g>
    <g transform="matrix(1,0,0,1,-422,-631.691)">
        <path d="M1285.03,914.648C1287.77,914.648 1291.77,916.102 1293.98,917.208C1295.39,917.912 1297.61,917.648 1299.13,918.122C1302.77,919.254 1306.54,919.376 1310.12,920.609C1311.17,920.973 1311.5,920.565 1312.61,920.841C1314.93,921.417 1318.34,921.004 1320.53,921.243C1321.36,921.333 1322.26,921.711 1322.85,921.118" style="fill:none;stroke:black;stroke-width:1px;"/>
    </g>
    <g transform="matrix(1,0,0,0.900451,-422,-542.054)">
        <path d="M1307.19,921.744C1309.94,921.744 1313.53,918.863 1314.54,916.802C1315.39,915.074 1313.4,910.477 1312.47,910.477" style="fill:none;stroke:black;stroke-width:1.05px;"/>
    </g>
    <g transform="matrix(1,0,0,0.892908,-420.82,-535.493)">
        <path d="M1298.59,920.088C1294.94,920.088 1294.21,915.973 1293.29,913.308C1292.6,911.307 1294.48,908.396 1295.8,908.396" style="fill:none;stroke:black;stroke-width:1.05px;"/>
    </g>
    <g transform="matrix(1,0,0,1,-422,-632.691)">
        <path d="M1178.94,914.395C1178.44,914.646 1177.91,914.762 1177.38,914.959C1176.54,915.278 1175.61,915.679 1174.84,916.147C1174.56,916.313 1174.26,916.444 1173.98,916.614C1173.92,916.648 1173.69,916.759 1173.69,916.847" style="fill:none;stroke:black;stroke-width:1px;"/>
    </g>
    <g transform="matrix(1,0,0,1,-422,-632.691)">
        <path d="M1552.87,1728C1552.15,1733.09 1550.23,1762.29 1549.25,1767.19C1545.71,1784.91 1552.5,1804.66 1548.96,1822.39C1548.07,1826.83 1547.25,1834.55 1544.02,1837.78C1542.61,1839.19 1539.66,1843.42 1539.66,1845.63" style="fill:none;stroke:black;stroke-width:1px;"/>
    </g>
    <g transform="matrix(1,0,0,1,-422,-632.691)">
        <path d="M1568.7,1990.7C1570.32,1997.28 1569.57,1994.94 1570.35,2001.17C1571.77,2012.48 1575.61,2023.42 1575.61,2034.72C1575.61,2039.75 1574.83,2046.92 1576.86,2050.99C1577.26,2051.79 1576.7,2053.33 1577.36,2054" style="fill:rgb(7,8,13);stroke:black;stroke-width:1px;"/>
    </g>
    <g transform="matrix(1,0,0,1,-422,-632.691)">
        <path d="M1594.3,1998.66C1593.63,2001 1594.49,1997.37 1594.2,1999.69C1593.76,2003.2 1592.9,2008.32 1593.78,2011.84C1594.63,2015.24 1596.1,2018.48 1597.65,2021.58C1598.43,2023.13 1599.58,2025.29 1600.79,2026.5C1605.27,2030.98 1609.97,2034.18 1615.35,2036.87C1616.79,2037.59 1620.6,2039.12 1621.11,2040.64C1621.55,2041.97 1620.91,2043.85 1621.11,2045.24C1621.31,2046.64 1621.72,2047.95 1621.94,2049.33C1622.01,2049.72 1622.15,2050.19 1622.15,2050.58C1622.15,2050.71 1622.15,2051.42 1622.15,2051.21" style="fill:none;stroke:black;stroke-width:1px;"/>
    </g>
    <g transform="matrix(1,0,0,1,-422,-632.691)">
        <path d="M1779.01,1147.17C1783.01,1150.26 1786.2,1152.02 1791,1153.22C1797.03,1154.73 1804.43,1154.76 1810.73,1153.71C1819.22,1152.29 1829.15,1146.27 1834.53,1140C1837.41,1136.63 1839.46,1133.43 1841.47,1129.41C1843.44,1125.46 1845.28,1121.67 1846.35,1117.4C1846.82,1115.5 1846.74,1113.78 1847.23,1111.84C1847.36,1111.31 1847.31,1110.29 1847.71,1109.89C1847.9,1109.71 1849.29,1109.89 1849.57,1109.89C1851.27,1109.89 1852.97,1107.93 1854.64,1107.69C1859.63,1106.98 1865.22,1107.23 1869.87,1108.11C1871.83,1108.48 1877.41,1109.31 1877.67,1109.38C1879.69,1109.85 1881.9,1110.39 1883.34,1111.04C1883.8,1111.24 1886.9,1111.01 1886.9,1111.72" style="fill:none;stroke:black;stroke-width:1px;"/>
    </g>
    <g transform="matrix(1,0,0,1,-422,-632.691)">
        <path d="M1887.53,1110.23C1883.27,1117.33 1883.45,1124.69 1881.87,1132.58C1881.31,1135.38 1881.68,1138.68 1881.68,1141.56C1881.68,1141.81 1881.84,1142.96 1881.68,1143.12C1881.59,1143.21 1880.92,1143.92 1881.19,1144.19C1881.24,1144.24 1882.11,1144.44 1882.26,1144.29C1883.22,1143.33 1883.85,1142.02 1884.6,1141.26C1886.24,1139.62 1889.56,1139.35 1891.44,1137.85C1894.06,1135.75 1896.22,1132.34 1898.07,1129.55C1899.06,1128.07 1899.45,1125.89 1899.73,1124.18C1900.09,1122.05 1901.75,1119.18 1902.66,1117.35C1903.09,1116.49 1902.41,1115.12 1902.85,1114.23C1903.41,1113.12 1905.77,1111.41 1906.86,1110.33C1909.26,1107.93 1911.87,1105.56 1915.44,1104.67C1916.96,1104.29 1918.62,1104.46 1920.13,1104.08C1921.22,1103.81 1924.67,1103.48 1925.69,1103.98C1927.37,1104.82 1928.65,1105.21 1930.47,1105.93" style="fill:none;stroke:black;stroke-width:1px;"/>
    </g>
    <g transform="matrix(1,0,0,1,-422,-632.691)">
        <path d="M1876.21,1154.73C1875.1,1156.64 1874.1,1158.45 1873.67,1160.59C1873.35,1162.23 1872.89,1163.56 1872.89,1165.27C1872.89,1170.01 1875.18,1170.36 1879.04,1171.13C1879.9,1171.3 1882.26,1171.6 1883.04,1171.13C1885.49,1169.66 1887.61,1168.09 1890.27,1167.03C1891.36,1166.59 1892.29,1165.66 1893.58,1165.66" style="fill:none;stroke:black;stroke-width:1px;"/>
    </g>
    <g transform="matrix(1,0,0,1,-422,-632.691)">
        <path d="M1925.65,1635.78C1924.57,1663.74 1927.54,1691.64 1927.54,1719.65C1927.54,1743.58 1926.75,1766.44 1927.67,1789.24C1928.33,1805.61 1929.87,1821.96 1933.2,1838.64C1934.21,1843.66 1933.33,1849.12 1934.34,1854.13C1937.49,1869.89 1934.71,1889.85 1934.71,1905.88L1934.71,1918.35C1934.71,1919.14 1933.29,1925.06 1932.69,1925.66C1932.61,1925.74 1931.08,1930.02 1924.56,1933.28C1919.46,1935.83 1846.69,1940.65 1840.89,1939.82C1818.82,1936.67 1794.1,1931.33 1771.9,1928.55C1758,1926.81 1747.42,1927.64 1729.99,1928.1C1710.55,1928.62 1688.65,1929.13 1669.14,1929.13C1662.13,1929.13 1643.95,1926.15 1638.19,1923.27C1621.95,1915.15 1612.65,1904.57 1599.36,1891.29C1592.69,1884.62 1582.59,1875.83 1575.85,1869.08C1572.72,1865.96 1566.71,1860.88 1563.07,1858.15C1558.49,1854.71 1554.95,1859.06 1550.03,1856.59" style="fill:none;stroke:black;stroke-width:1px;"/>
    </g>
    <g transform="matrix(1,0,0,1,-422,-632.691)">
        <path d="M1549.62,1856.33C1544.22,1855.25 1538.1,1851.99 1533.05,1850.31C1529.09,1848.99 1523.67,1850.9 1519.53,1850.31C1513.92,1849.51 1514.73,1851.21 1508.91,1852.66C1504.59,1853.74 1502.17,1858.58 1501.88,1859.75C1501.6,1860.88 1499.95,1864.62 1499.12,1865.45C1498.59,1865.98 1492.91,1866.69 1491.28,1866.96C1487.31,1867.62 1489.16,1868.34 1485.97,1869.93C1485.57,1870.13 1483.07,1872.66 1482.77,1873.12C1481.5,1875.02 1479.8,1876.2 1479.8,1878.57C1479.8,1879.07 1478.74,1887.1 1478.36,1887.47C1477.94,1887.89 1474.71,1887.47 1474.18,1887.47C1472.5,1887.47 1464.43,1896.07 1462.37,1902.23C1461.73,1904.16 1460.43,1912.83 1459.69,1914.32C1459.49,1914.72 1458.41,1914.95 1458.08,1915.28C1456.06,1917.3 1450.72,1923.5 1448.75,1925.47C1441.15,1933.07 1443.3,1946.88 1449.4,1957.68C1452.52,1963.21 1462.98,1956.07 1464.46,1950.36C1464.62,1949.77 1464.71,1944.46 1464.9,1943.9C1465.34,1942.59 1466.27,1940.41 1466.19,1940.49C1465.74,1940.94 1467.38,1948.02 1470.65,1951.29C1471.76,1952.4 1477.4,1953.53 1479.27,1952.9C1483.78,1951.4 1484.78,1947.17 1487.16,1943.6C1487.74,1942.73 1491.61,1943.06 1492.31,1943.4C1498.83,1946.67 1502.08,1950.74 1508.98,1953.5C1510.94,1954.28 1512.48,1956.45 1514.29,1957.36C1517.31,1958.87 1520.04,1961.36 1522.98,1962.83" style="fill:none;stroke:black;stroke-width:1px;"/>
    </g>
    <g transform="matrix(1,0,0,1,-422,-632.691)">
        <path d="M1522.88,1962.79C1532.28,1967.71 1535.55,1972.6 1543.85,1977.59C1549.46,1980.95 1555.88,1986.47 1562.1,1988.96C1568.8,1991.64 1576.68,1994.98 1583.86,1997.03C1588.28,1998.29 1592.52,1999.81 1597.18,2000.32C1608.75,2001.61 1620.42,1993.78 1632.24,1996.14C1641.84,1998.06 1652.63,2000.38 1662.23,2003.12C1674.91,2006.74 1687.63,2011.75 1699.73,2017.12C1704.66,2019.32 1710.72,2019.24 1715.5,2021.63C1725.65,2026.71 1752.85,2034.35 1755.74,2036.28C1758.5,2038.12 1822.21,2044.21 1822.21,2049.96" style="fill:none;stroke:black;stroke-width:1px;"/>
    </g>
    <g transform="matrix(1,0,0,1,-422,-632.691)">
        <path d="M948.195,2060.64C942.571,2038.14 952.185,1995.17 956.82,1972C958.164,1965.28 971.916,1946.36 969.757,1944.2C967.216,1941.66 962.686,1952.12 959.523,1948.95C958.485,1947.91 953.402,1943.2 954.461,1940.89C955.988,1937.56 961.42,1931.93 959.972,1927.19C959.447,1925.48 956.786,1904.94 956.883,1900.01C956.933,1897.46 959.909,1885.77 959.1,1883.51C955.067,1872.24 955.394,1877.13 954.53,1868.79C954.04,1864.06 953.047,1857.95 959.531,1850.76C968.4,1840.91 966.461,1843.23 966.142,1842.91" style="fill:none;stroke:black;stroke-width:1px;"/>
    </g>
    <g transform="matrix(1,0,0,1,-422,-632.691)">
        <path d="M967.502,1941.8C966.757,1941.8 965.527,1939.99 965.112,1939.47C962.671,1936.39 962.284,1932.46 962.284,1928.63" style="fill:none;stroke:black;stroke-width:1px;"/>
    </g>
    <g transform="matrix(1,0,0,1,-422,-632.691)">
        <path d="M971.89,1911.62C971.89,1909.44 972.202,1906.97 971.842,1904.83C971.408,1902.25 970.161,1899.72 969.834,1897.14C969.654,1895.72 969.572,1894.53 969.161,1893.23C968.374,1890.73 966.214,1889.45 965.398,1887.09C965.193,1886.49 964.273,1886.01 964.273,1885.38" style="fill:none;stroke:black;stroke-width:1px;"/>
    </g>
    <g transform="matrix(1,0,0,1,-422,-632.691)">
        <path d="M969.503,1893.54C969.199,1893.52 969.846,1894.98 969.93,1895.12C970.725,1896.43 971.636,1897.19 972.932,1897.95C974.92,1899.12 976.187,1901.4 978.356,1902.48C978.926,1902.77 979.913,1903.58 980.646,1903.2C981.35,1902.85 982.039,1901.74 982.615,1901.16C983.911,1899.84 983.216,1896.67 982.762,1895.22C982.577,1894.63 982.688,1893.89 982.502,1893.3C981.83,1891.15 982.489,1888.24 982.183,1886C981.806,1883.26 981.828,1880.38 981.369,1877.63C981.071,1875.84 980.359,1873.76 980.359,1871.97" style="fill:none;stroke:black;stroke-width:1px;"/>
    </g>
    <g transform="matrix(1,0,0,1,-422,-632.691)">
        <path d="M965.122,1842.17C966.422,1843.98 967.688,1845.81 969.023,1847.59C972.142,1851.75 976.058,1856.89 978.127,1861.03C978.4,1861.57 979.285,1865.79 980.077,1865.79C980.425,1865.79 980.294,1860.97 980.294,1860.59C980.294,1857.51 971.939,1824.66 973.026,1821.77C977.158,1810.75 979.033,1799.37 983.646,1788.61C986.834,1781.17 987.895,1773.95 988.632,1765.85C989.727,1753.8 991.767,1741.87 992.967,1729.87C993.735,1722.18 997.222,1715.11 998.169,1707.54C999.206,1699.24 1000.5,1690.93 1001.42,1682.61C1002.61,1671.94 1001.39,1660.97 1002.72,1650.32C1004.34,1637.35 1004.9,1621.83 1003.59,1608.7C1002.02,1593.03 999.064,1577.95 994.917,1562.75C993.54,1557.7 991.654,1552.71 990.799,1547.58C990.52,1545.9 990.27,1544.26 989.715,1542.59C989.477,1541.88 989.065,1540.43 989.065,1540.43L989.065,1543.46C989.065,1545.41 989.704,1547.1 990.149,1548.88C990.57,1550.56 991.976,1552.1 992.75,1553.65C994.682,1557.51 996.019,1562.63 996.868,1566.87C999.255,1578.81 999.039,1591.16 1001.42,1603.07C1002.37,1607.8 1001.38,1613.01 1002.07,1617.81C1003.19,1625.61 1002.07,1634.41 1002.07,1642.3C1002.07,1644.72 1001.49,1647.98 1002.07,1650.32C1004.23,1658.95 1003.8,1668.17 1003.8,1677.19C1003.8,1684.84 1004.23,1692.66 1003.15,1700.17C1002.24,1706.56 999.063,1712.77 998.169,1719.03C997.062,1726.77 995.341,1735.1 992.967,1742.22C991.053,1747.96 992.533,1756.61 992.533,1762.81C992.533,1773.62 989.052,1780.19 985.814,1789.9C983.504,1796.84 981.722,1805.11 977.361,1810.93C973.401,1816.21 981.694,1853.46 978.777,1859.29C978.148,1860.55 977.601,1861.64 977.043,1862.76C976.89,1863.07 977.288,1865.36 977.26,1865.36C976.524,1865.36 975.891,1862.34 975.743,1861.89" style="fill:none;stroke:black;stroke-width:1px;"/>
    </g>
    <g transform="matrix(1,0,0,1,-422,-632.691)">
        <path d="M1167.57,1153.63C1166.73,1154.84 1165.83,1156.01 1165.04,1157.25C1164.59,1157.96 1165.04,1160.57 1165.04,1161.42C1165.04,1165.27 1165.79,1169.97 1165.04,1173.74C1163.61,1180.86 1157.8,1186.02 1156.16,1192.58C1155.46,1195.38 1153.64,1198.81 1154.71,1202.01C1155.1,1203.19 1156.94,1203.66 1157.97,1204.18C1160.05,1205.22 1161.78,1206.92 1163.77,1208.17C1166.28,1209.74 1168.86,1211.45 1171.56,1212.69C1175.79,1214.65 1179.8,1216.47 1184.24,1217.95C1190.95,1220.19 1197.69,1222.33 1204.72,1223.2C1212.41,1224.17 1219.66,1227.2 1227.19,1228.46C1230.22,1228.96 1234.44,1231.21 1237.69,1229.91C1243.21,1227.7 1249.54,1223.93 1254.36,1220.49C1257.6,1218.18 1261.94,1217.16 1265.42,1215.23C1272.87,1211.09 1281.17,1208.81 1289.15,1205.81C1293.17,1204.3 1296.52,1201.31 1300.2,1199.47C1301.35,1198.89 1302.83,1196.93 1304.19,1196.93" style="fill:none;stroke:black;stroke-width:1px;"/>
    </g>
    <g transform="matrix(1,0,0,1,-422,-632.691)">
        <path d="M1301.2,1200.46C1306.61,1200.02 1310.94,1197.4 1316.06,1196.12C1322.99,1194.38 1329.53,1191.93 1335.99,1189.78C1337.78,1189.18 1339.09,1186.12 1340.16,1184.7C1342.6,1181.45 1345.09,1177.2 1346.86,1173.65C1348.62,1170.13 1349.72,1166.04 1350.49,1162.23C1351.01,1159.6 1350.19,1156.47 1351.39,1154.08C1352.13,1152.6 1351.13,1149.49 1351.39,1147.92C1352.58,1140.78 1353.02,1133.54 1353.02,1126.18C1353.02,1122.35 1353.2,1118.58 1353.2,1114.76C1353.2,1114.27 1353.71,1111.32 1353.2,1111.32" style="fill:none;stroke:black;stroke-width:1px;"/>
    </g>
    <g transform="matrix(1,0,0,1,-422,-632.691)">
        <path d="M1148.63,1061.13C1151.9,1076.16 1164.26,1085.38 1176.59,1093.6C1179.38,1095.46 1180.93,1099.77 1184.14,1101.38C1188.89,1103.75 1193.4,1107.84 1198.32,1110.3C1208.18,1115.23 1217.7,1115.64 1228.82,1117.5C1232.54,1118.12 1239.84,1119.68 1243.57,1120.3C1251.43,1121.61 1258.55,1118.09 1266.61,1116.94C1280.34,1114.98 1284.92,1108.99 1297.37,1104.01C1302.97,1101.78 1311.28,1096.4 1316.28,1093.9C1326.53,1088.78 1330.9,1083.3 1335.59,1073.92C1337.63,1069.84 1340.67,1065.49 1341.77,1061.11C1342.17,1059.49 1344.25,1058.43 1344.97,1056.99C1349.03,1048.87 1353.77,1042.44 1353.77,1033.35" style="fill:none;stroke:black;stroke-width:1px;"/>
    </g>
    <g transform="matrix(1,0,0,1,-422,-632.691)">
        <path d="M1204.27,1011.05C1207.87,1010.53 1211.31,1010.43 1214.79,1009.85C1217.9,1009.33 1222.22,1008.33 1225.43,1009.13C1230.45,1010.39 1235.35,1011.81 1240.5,1012.84C1247.64,1014.27 1256.33,1010.71 1262.98,1014.03C1268.24,1016.66 1275.68,1018.82 1281.51,1018.82C1282.14,1018.82 1285.35,1018.35 1285.82,1018.82C1286.17,1019.18 1286.44,1019.42 1287.25,1019.42L1289.76,1019.42C1290.16,1019.42 1290.96,1019.53 1290.96,1019.53C1290.96,1019.53 1290.08,1019.82 1289.76,1020.13C1289.55,1020.35 1288.62,1020.99 1288.21,1021.09C1286.07,1021.62 1283.67,1022.58 1281.39,1023.72C1276.81,1026.01 1271.89,1025.51 1266.8,1025.51C1264.74,1025.51 1262.22,1025.89 1260.23,1025.39C1257.55,1024.72 1254.84,1024.56 1251.98,1024.56C1251.3,1024.56 1249.72,1024.25 1249.11,1024.56C1247.68,1025.27 1243.11,1025.18 1241.57,1024.8C1236.97,1023.64 1232.46,1021.07 1227.58,1020.25C1225.01,1019.82 1222.34,1019.77 1219.69,1019.77C1218.69,1019.77 1216.75,1020.1 1215.87,1019.65C1214.03,1018.74 1211,1017.66 1209.53,1016.19C1207.98,1014.63 1205.96,1011.17 1203.31,1011.17" style="fill:none;stroke:black;stroke-width:1px;"/>
    </g>
    <g transform="matrix(1,0,0,1,-422,-632.691)">
        <path d="M1211.94,1010.13C1211.93,1010.17 1211.54,1011.64 1211.68,1012.08C1212.29,1013.9 1214.12,1014.4 1215.7,1015.19C1217.68,1016.18 1217.81,1017.99 1219.72,1018.95C1220.78,1019.48 1222.59,1019.21 1223.8,1019.21C1225.27,1019.21 1227.37,1019.56 1228.8,1019.92C1229.88,1020.19 1230.89,1020.62 1231.91,1020.96C1232.51,1021.16 1233.55,1020.96 1234.18,1020.96C1236.01,1020.96 1238.28,1020.73 1240.08,1021.09C1241.21,1021.31 1243.08,1021.38 1244.22,1021.15C1245.17,1020.96 1246.07,1020.42 1247.01,1020.18C1247.93,1019.95 1249.11,1020.23 1249.93,1020.5C1251.37,1020.98 1253.07,1021.05 1254.53,1021.41C1257.06,1022.04 1259.39,1020.43 1261.73,1020.89C1263.83,1021.31 1266.2,1020.89 1268.27,1021.41C1269.01,1021.59 1269.88,1021.23 1270.61,1021.41C1272.75,1021.95 1274.78,1022.38 1277.16,1022.38C1277.73,1022.38 1278.69,1022.56 1279.23,1022.38C1280.98,1021.8 1282.83,1020.87 1284.55,1020.44C1285.16,1020.29 1285.83,1019.53 1286.49,1019.53" style="fill:none;stroke:black;stroke-width:1px;"/>
    </g>
    <g transform="matrix(1,0,0,1,-422,-632.691)">
        <path d="M1205.31,1010.8C1205.84,1008.46 1207.42,1007.07 1209.19,1005.66C1210.17,1004.88 1211.12,1004.05 1212.22,1003.39C1213.34,1002.72 1215.03,1002.71 1216.26,1002.46C1219.91,1001.73 1223.53,1001.7 1227.3,1001.7C1230.63,1001.7 1233.89,1002.58 1237.07,1003.22C1238.25,1003.45 1239.73,1003.22 1240.94,1003.22C1243.87,1003.22 1246.83,1003.29 1249.7,1002.88C1252.16,1002.53 1254.02,1003.27 1256.27,1003.72C1258.98,1004.26 1261.87,1004.44 1264.52,1005.32C1269.83,1007.09 1273.9,1010.6 1278.67,1012.99C1281.76,1014.53 1284.72,1016.68 1287.6,1018.12C1288.15,1018.4 1290.26,1019.23 1290.46,1019.64" style="fill:none;stroke:black;stroke-width:1px;"/>
    </g>
    <g transform="matrix(1,0,0,1,-422,-632.691)">
        <path d="M1205.48,1011.56C1204.71,1017.48 1207.6,1023.44 1211.71,1027.56C1212.61,1028.46 1213.94,1028.85 1214.83,1029.75C1216.13,1031.05 1218.59,1032.41 1220.39,1032.86C1222.31,1033.34 1224.31,1033.63 1226.28,1033.96C1227.43,1034.15 1228.69,1033.76 1229.82,1034.04C1231.85,1034.55 1233.8,1035.75 1235.97,1036.06C1239.52,1036.57 1243.14,1036.82 1246.75,1036.82C1249.68,1036.82 1252.07,1035.29 1254.92,1034.88C1257.89,1034.46 1260.64,1033.54 1263.6,1032.95C1265.06,1032.65 1266.82,1032.35 1268.14,1031.68C1269.67,1030.92 1271.69,1030.64 1273.28,1030C1277.24,1028.42 1280.43,1025.22 1284.4,1023.51C1285.91,1022.86 1287.39,1022.27 1288.69,1021.49C1288.99,1021.32 1289.96,1021.07 1289.96,1020.74" style="fill:none;stroke:black;stroke-width:1px;"/>
    </g>
    <g transform="matrix(1,0,0,1,-422,-632.691)">
        <path d="M1178.2,914.863C1180.22,913.244 1182.29,911.988 1184.23,910.533C1190.08,906.143 1194.71,899.084 1202.86,897.919C1207.19,897.301 1213.26,896.459 1217.74,897.355C1220.92,897.991 1224.2,900.053 1226.96,900.743C1229.55,901.391 1231.04,903.252 1232.8,904.132C1233.85,904.66 1234.5,904.984 1235.43,905.45C1235.9,905.682 1236.94,905.827 1236.94,905.827C1236.94,905.827 1234.75,907.122 1233.55,907.521C1232.57,907.848 1229.76,910.398 1229.22,911.475C1228.62,912.685 1225.14,913.692 1223.95,914.487C1218.68,917.998 1211.84,921.641 1205.31,921.641C1202.61,921.641 1198.9,922.297 1196.27,921.641C1188.35,919.659 1182.37,916.934 1173.68,916.934" style="fill:none;stroke:black;stroke-width:1px;"/>
    </g>
    <g transform="matrix(1,0,0,1,-422,-632.691)">
        <path d="M1271.56,911.304C1277.13,910.545 1282.82,907.889 1287.55,905.047C1293.01,901.77 1301.44,900.193 1307.83,901.107C1309.92,901.406 1311.74,902.737 1313.74,903.309C1319.02,904.817 1322.59,908.935 1326.84,912.115C1328.33,913.237 1330.32,914.848 1331.35,916.403C1331.95,917.291 1333.21,918.024 1333.67,918.489C1334.21,919.027 1334.36,920.266 1334.95,921.154C1335.16,921.477 1336.5,922.848 1336.45,922.892C1336.22,923.124 1334.58,922.892 1334.25,922.892C1332.48,922.892 1328.85,922.119 1327.3,922.892C1324.97,924.056 1321.93,924.453 1319.3,924.978C1314.48,925.942 1309.39,927.104 1304.24,926.368C1297.63,925.424 1292.63,922.189 1286.86,919.3C1284.55,918.147 1282.57,915.622 1280.14,915.012C1279.08,914.749 1277.82,913.427 1276.89,912.811C1275.04,911.575 1271.33,910.03 1269.13,910.03" style="fill:none;stroke:black;stroke-width:1px;"/>
    </g>
    <g transform="matrix(1,0,0,1,-422,-632.691)">
        <path d="M1110.85,916.642C1115.99,922.368 1120.16,923.555 1123.39,930.019C1123.6,930.442 1125.43,931.981 1125.92,934.45C1126.53,937.513 1126.85,945.841 1127.04,947.008C1127.14,947.596 1129.57,947.359 1128.82,945.868C1126.57,941.361 1132.73,939.194 1132.73,934.012C1132.73,932.356 1134.11,929.905 1134.91,928.575C1137.29,924.606 1138.64,919.967 1140.34,915.707C1143.7,907.322 1145.69,897.897 1146.69,888.883C1147.28,883.515 1149.95,878.536 1149.95,873.115C1149.95,866.31 1147.3,860.57 1145.96,853.904C1144.69,847.552 1147.15,842.402 1148.14,836.505C1148.98,831.444 1151.15,825.699 1154.84,822.005C1165.74,811.109 1183.37,803.41 1199.25,806.056C1204.48,806.928 1209.82,806.962 1215.2,806.962C1216.97,806.962 1219.86,807.522 1221.54,806.962C1236.45,801.991 1247.64,790.492 1262.68,784.851C1266.69,783.348 1272.05,784.126 1276.27,784.126C1284.61,784.126 1292.21,786.602 1300.2,787.932C1303.73,788.52 1307.05,791.23 1310.53,792.101C1313.98,792.963 1317.23,793.55 1320.5,794.638C1324.49,795.97 1332,794.147 1335.18,796.269" style="fill:none;stroke:black;stroke-width:1px;"/>
    </g>
    <g transform="matrix(1,0,0,1,-422,-632.691)">
        <path d="M1328.92,792.916C1329.14,792.799 1332.49,790.944 1332.73,790.923C1333.29,790.873 1334.51,792.596 1334.91,792.916C1336.74,794.385 1338.69,795.695 1340.52,797.266C1346.9,802.733 1350.76,811.118 1353.39,819.015C1355.44,825.17 1356.64,831.083 1357.56,837.502C1358.73,845.713 1356.2,854.517 1357.56,862.694C1358.85,870.443 1361.28,878.004 1362.82,885.712C1364.87,895.993 1364.63,907.45 1364.63,918.335C1364.63,924.936 1363.34,933.092 1364.63,939.54C1365.22,942.491 1366.26,945.762 1366.26,948.783C1366.26,952.277 1366.62,955.755 1366.62,959.295C1366.62,960.163 1366.86,961.893 1367.35,962.377C1367.67,962.702 1367.89,964.105 1367.89,963.645C1367.89,962.854 1367.53,961.975 1367.53,961.108" style="fill:none;stroke:black;stroke-width:1px;"/>
    </g>
    <g transform="matrix(1,0,0,1,-422,-632.691)">
        <path d="M1605.55,1895.94C1587.94,1868.86 1590.47,1831.19 1580.84,1802.28C1579.45,1798.12 1579.54,1776.85 1577.97,1775.28C1574.78,1772.09 1571.5,1760.47 1569.92,1755.74C1568.86,1752.56 1564.01,1746.87 1561.88,1743.68C1548.93,1724.25 1530.54,1689.98 1536.75,1665.12C1541.18,1647.42 1545.42,1634.09 1550.89,1617.68C1559.04,1593.23 1580.65,1567.65 1592.37,1544.22C1605.19,1518.57 1611.81,1488.37 1627.38,1465.02C1635.6,1452.69 1638.14,1432.42 1648.64,1421.92C1659.82,1410.75 1669.74,1393.14 1678.52,1379.98C1688.57,1364.9 1708.93,1358.76 1717.59,1350.1C1718.92,1348.76 1723.14,1350.3 1724.48,1348.95C1724.83,1348.61 1724.48,1346.05 1724.48,1345.51C1724.48,1343.77 1720.93,1342.8 1720.46,1340.91C1719.45,1336.88 1720.46,1331.31 1720.46,1327.12C1720.46,1304.92 1712.82,1291.57 1706.09,1271.39C1702.71,1261.23 1690.58,1248.19 1690.58,1236.34" style="fill:none;stroke:black;stroke-width:1px;"/>
    </g>
    <g id="Layer1" transform="matrix(1,0,0,1,-422,-632.691)">
        <path d="M814.39,2063.57C799.094,2029.58 817.267,1912.5 825.297,1872.35C829.519,1851.24 822.632,1812.72 828.932,1793.82C833.623,1779.75 830.331,1762.11 833.295,1747.29C840.22,1712.66 836.887,1675.57 842.747,1640.41C850.026,1596.73 861.957,1553.62 867.468,1509.53C870.912,1481.98 884.625,1456.33 888.553,1428.83C893.776,1392.26 897.831,1355.36 906.73,1319.76C908.593,1312.31 917.489,1306.97 920.545,1300.86C931.227,1279.5 991.302,1270.25 1012.88,1263.05C1046.26,1251.93 1071.9,1227.3 1097.23,1201.98C1107.72,1191.49 1122.8,1185.86 1132.85,1175.8C1143.02,1165.64 1145.58,1177.37 1154.96,1167.99" style="fill:none;stroke:black;stroke-width:1px;"/>
        <path d="M1144.84,1174.56C1151.68,1168.7 1160.49,1162.98 1166.1,1157.37C1166.73,1156.74 1166.82,1151.37 1166.82,1150.44C1166.82,1143.99 1166.51,1135.84 1164.91,1129.42C1164.15,1126.4 1165.01,1119.49 1163,1117.48C1161.91,1116.39 1161.58,1112.52 1161.09,1111.03C1158.78,1104.12 1156.24,1096.98 1153.92,1090.01C1153,1087.24 1153.91,1083.98 1153.2,1081.17C1151.68,1075.06 1151.89,1068.15 1149.86,1062.06C1148.57,1058.19 1145.3,1055.3 1143.89,1051.08C1140.02,1039.48 1137.12,1027.66 1135.05,1015.25C1134.4,1011.37 1133.62,1007.22 1133.62,1003.31L1133.62,996.379C1133.62,996.379 1133.92,998.339 1133.62,999.245C1133.2,1000.5 1132.38,1003.21 1131.23,1003.78C1128.74,1005.03 1123.98,1010.13 1121.11,1009.42C1114.82,1007.84 1108.81,996.914 1107.57,990.724C1103.49,970.3 1097.54,950.687 1102.93,929.1C1104.21,924.013 1105.49,919.67 1109.57,917.047C1110.84,916.225 1113.74,915.075 1112.99,914.151C1111.93,912.835 1110.99,903.396 1110.17,898.557C1107.57,883.205 1110.38,861.354 1110.38,858.772" style="fill:none;stroke:black;stroke-width:1px;"/>
        <path d="M1110.6,860.404C1110.09,855.332 1112.35,851.833 1113.89,847.218C1115.22,843.222 1114.7,838.668 1115.54,834.482C1116.46,829.875 1119.8,826.215 1121.24,821.895C1124.48,812.157 1130.21,804.159 1136.52,796.273C1140.02,791.899 1143.3,787.132 1146.56,782.787C1147.81,781.124 1149.38,778.65 1151.05,777.393C1155.18,774.297 1159.3,770.645 1162.89,767.054C1166.49,763.456 1171.63,761.559 1175.63,758.363C1183.71,751.895 1191.54,744.307 1201.4,740.083C1206.01,738.109 1210.87,736.068 1215.48,734.09C1221.54,731.495 1226.61,726.585 1232.86,724.5C1234.36,724.001 1236.53,724.35 1238.11,724.35C1243.96,724.35 1248.76,725.702 1254.14,727.047C1257.57,727.903 1261.5,727.602 1264.78,728.695C1266.52,729.275 1268.58,729.014 1270.32,729.594C1271.15,729.869 1272.4,729.211 1273.17,729.594C1275.44,730.728 1279.1,730.088 1281.71,731.393C1285.15,733.111 1289.89,734.074 1293.55,734.989C1296.07,735.62 1296.45,738.237 1298.34,739.184C1303.9,741.963 1309.59,748.087 1316.03,749.373C1322.76,750.72 1328.88,752.275 1335.35,753.569C1338.73,754.244 1342.68,757.606 1345.39,759.412C1347.54,760.843 1348.34,763.554 1349.89,765.106C1353.25,768.469 1355.72,772.133 1358.73,775.145C1360.17,776.584 1360.02,779.336 1361.13,780.989C1363.72,784.884 1365.63,789.54 1367.57,793.426" style="fill:none;stroke:black;stroke-width:1px;"/>
        <path d="M1367.35,790.504C1372.09,794.775 1376.93,799.125 1380.98,803.989C1383.56,807.082 1386.91,810.556 1388.17,814.328C1390.39,820.994 1392.15,828.052 1394.46,835.006C1396.94,842.432 1401.38,849.734 1399.71,858.081C1398.91,862.07 1396.13,865.349 1395.37,869.169C1394.22,874.895 1391.42,880.478 1390.27,886.251C1389.15,891.856 1389.97,898.454 1389.97,904.231C1389.97,906.002 1390.4,908.362 1389.97,910.075C1389.36,912.533 1388.81,914.887 1388.17,917.417C1387.74,919.13 1387.37,921.276 1386.67,922.662C1386.42,923.173 1386.89,923.948 1386.52,924.31C1386.09,924.745 1387.04,925.242 1387.27,925.359C1388.43,925.937 1390.32,929.348 1391.02,930.753C1392.4,933.515 1394.33,936.338 1395.37,939.444C1396.01,941.382 1395.93,943.343 1396.41,945.287C1397.1,948.022 1396.56,951.585 1396.56,954.427C1396.56,967.921 1391.83,979.824 1388.62,992.636C1387.81,995.9 1387.66,999.826 1385.8,1002.63C1383.09,1006.69 1382.8,1011.31 1379.83,1015.28C1377.77,1018.02 1375.46,1018.8 1373.63,1020.63C1370.54,1023.72 1364.19,1020.65 1362.04,1018.49C1361.92,1018.37 1360.52,1015.79 1360.52,1015.79C1360.52,1015.79 1360.08,1017.16 1360.08,1017.91C1360.08,1020.66 1356.86,1024.95 1356.86,1027.7C1356.86,1029.83 1355.45,1030.88 1354.91,1032.49C1354.37,1034.1 1354.48,1036.06 1353.71,1037.59C1352.41,1040.19 1356.11,1043.62 1356.11,1046.13" style="fill:none;stroke:black;stroke-width:1px;"/>
        <path d="M1354.59,1041.4C1353.6,1044.21 1354.98,1043.31 1354.98,1046.13C1354.98,1046.45 1355.24,1048.42 1354.98,1048.68C1351.87,1051.79 1350.2,1058.23 1349.14,1063.51C1347.13,1073.56 1348.54,1085.24 1348.54,1095.58C1348.54,1100.21 1348.84,1105.37 1348.84,1109.66C1348.84,1110.37 1348.49,1114.4 1348.99,1114.9C1349.71,1115.63 1350.28,1113.34 1350.34,1113.11C1350.48,1112.55 1349.94,1110.51 1350.34,1110.11C1350.67,1109.78 1351.89,1111.67 1351.99,1111.76C1352.3,1112.07 1355.1,1111.84 1355.43,1111.91C1357.9,1112.4 1360.29,1113.29 1362.78,1113.71C1371.57,1115.17 1373.02,1123.11 1378.66,1127.34C1381.47,1129.45 1386.45,1131.62 1388.4,1134.53C1389.9,1136.79 1392.93,1137.87 1394.99,1139.93C1398,1142.94 1400.97,1145.65 1403.53,1149.07C1405.38,1151.53 1405.3,1157.07 1408.18,1158.51C1408.82,1158.83 1409.97,1155.46 1410.87,1154.91C1413.56,1153.3 1416.96,1153.56 1420.01,1153.56C1422.82,1153.56 1425.93,1153.17 1428.7,1153.56C1432.23,1154.07 1435.19,1155.1 1438.89,1154.76C1440.91,1154.58 1447.52,1156.08 1449.43,1155.6C1452.95,1154.72 1468.12,1155.65 1474.93,1156.63C1480.07,1157.36 1497.44,1152.24 1501.95,1154.49" style="fill:none;stroke:black;stroke-width:1px;"/>
        <g transform="matrix(1,0,0,1,-3,0)">
            <path d="M1482.05,1152.21C1496.54,1153.47 1535.76,1154.51 1549.14,1157.86C1575.73,1164.51 1595.84,1169.86 1623.29,1169.86C1636.34,1169.86 1644.69,1175.98 1655.06,1181.16C1655.33,1181.3 1661.39,1192.1 1661.47,1190.79C1661.49,1190.5 1660.05,1180.33 1659.84,1180.12C1653.99,1174.27 1656.31,1166.31 1653.02,1157.62C1652.01,1154.97 1651.35,1152.54 1650.9,1150.23C1649.22,1141.56 1653.64,1134.71 1651.6,1124.5C1650.31,1118.02 1651.2,1107.52 1651.2,1106.45" style="fill:none;stroke:black;stroke-width:1px;"/>
        </g>
        <path d="M1646.46,1101.47C1646.07,1097.21 1644.94,1094.83 1645.67,1090.44C1645.75,1089.97 1646.83,1086.93 1646.19,1086.29C1641.56,1081.66 1636.09,1069.53 1645.15,1066.65C1649.36,1065.31 1655.93,1062.64 1660.78,1064.26C1661.18,1064.39 1667.2,1064.35 1667.2,1063.72C1667.2,1062.95 1665.76,1062.87 1665.39,1062.69C1664.46,1062.22 1663.83,1059.56 1663.31,1058.54C1660.93,1053.77 1661.19,1040.62 1662.27,1035.19C1664.22,1025.46 1667.32,1015.91 1669.28,1006.13C1671.48,995.121 1671.71,983.793 1675.25,973.188C1677.51,966.391 1684.74,961.015 1688.73,955.029C1694.72,946.045 1700.58,934.618 1708.45,926.752C1711.88,923.318 1715.82,920.416 1719.35,916.894C1725.14,911.099 1737.68,909.975 1745.29,908.074C1751.09,906.623 1753.64,901.54 1756.96,898.216C1759.52,895.655 1762.51,901.122 1763.45,901.589C1767.95,903.839 1782.48,904.089 1786.02,900.551C1788.02,898.549 1784.86,894.298 1786.28,891.472C1788.06,887.907 1792.19,882.438 1794.58,880.057C1795.66,878.974 1794.88,875.86 1796.13,874.61C1797.56,873.185 1797.69,869.685 1799.25,867.605C1800.98,865.294 1803.22,862.848 1805.21,860.86C1808.38,857.696 1817.38,857.651 1821.56,859.045C1822.14,859.241 1827.69,860.689 1827.78,860.601C1828.11,860.274 1828.12,858.145 1828.56,857.488C1830.25,854.951 1833.56,853.848 1835.82,852.04C1842.62,846.604 1848.03,844.052 1856.84,845.814C1862.88,847.022 1870.74,850.31 1876.03,853.337C1883.02,857.327 1889.56,860.955 1896.01,865.789C1898.54,867.689 1900.84,871.559 1902.23,874.35C1904.21,878.31 1907.37,882.459 1908.46,886.802C1910.9,896.568 1909.76,908.614 1909.76,919.229C1909.76,924.257 1901.08,927.888 1899.64,932.2C1899.42,932.866 1896.09,935.656 1897.05,936.61C1897.74,937.301 1901.13,936.447 1901.98,936.87C1907.11,939.436 1910.72,946.396 1914.69,950.359C1915.75,951.419 1917.88,952.346 1918.58,953.732C1919.63,955.834 1919.12,958.438 1920.13,960.476C1922.44,965.084 1923.25,968.57 1923.25,974.744C1923.25,978.55 1921.55,986.917 1923.25,990.309C1924.1,992.013 1924.8,996.595 1924.8,998.351" style="fill:none;stroke:black;stroke-width:1px;"/>
        <path d="M1925.88,992.689C1930.77,1007.36 1932.44,1025.89 1929.85,1041.41C1929,1046.53 1927.52,1054.71 1928.86,1060.06C1930.82,1067.89 1934.51,1077.47 1932.34,1086.16C1931.2,1090.71 1925.26,1095.72 1922.64,1098.34C1922.48,1098.51 1926.2,1100.9 1926.37,1101.57C1927.65,1106.66 1931.06,1110.86 1932.34,1115.99C1935.17,1127.33 1927.47,1134.62 1923.89,1143.58C1921.9,1148.55 1916.45,1151.49 1914.19,1156.01C1913.42,1157.55 1912.38,1159.56 1911.21,1160.73C1908.98,1162.96 1906.88,1167.58 1905.74,1170.43C1902.72,1177.97 1897.3,1188.32 1891.32,1194.29C1886.54,1199.08 1876.05,1197.77 1869.69,1197.77C1868.53,1197.77 1862.54,1196.98 1861.74,1197.77C1860.71,1198.8 1862.09,1204.57 1861.74,1205.97C1860.43,1211.21 1859.5,1216.18 1859.5,1221.63C1859.5,1224.35 1859.1,1227.06 1858.26,1229.59C1857.82,1230.92 1858.26,1233.82 1858.26,1233.82L1858.26,1231.08C1858.26,1229.53 1859.12,1229.11 1859.75,1227.85C1860.2,1226.96 1860,1224.87 1860,1224.87C1860,1224.87 1862.13,1225.61 1863.23,1225.61C1865.73,1225.61 1867.96,1225.86 1870.44,1225.86C1877.14,1225.86 1884.57,1226.04 1890.83,1227.6C1904.04,1230.9 1915.54,1239.68 1929.85,1243.26C1933.21,1244.1 1937.81,1243.26 1941.29,1243.26C1949.44,1243.26 1957.94,1243.84 1965.9,1242.52C1975.57,1240.9 1984.59,1243.97 1993.74,1245.5C2002.56,1246.97 2008.86,1255.25 2016.86,1258.67C2028.17,1263.52 2037.72,1271.54 2044.95,1281.54C2049.01,1287.17 2055.26,1292.26 2058.12,1298.69C2064.57,1313.2 2073.11,1328.23 2075.77,1344.19C2077.66,1355.55 2077.51,1368.67 2077.51,1379.73" style="fill:none;stroke:black;stroke-width:1px;"/>
        <path d="M2082.07,1371.42C2081.63,1381.57 2087.28,1397.97 2079.98,1405.28C2071.57,1413.68 2046.71,1423.8 2052.05,1439.83C2058.28,1458.52 2068.21,1476.52 2073,1495.68C2075.43,1505.43 2074.5,1515.77 2076.49,1525.7C2078.21,1534.31 2081.38,1543.49 2081.38,1551.88C2081.38,1558.01 2081.72,1563.97 2081.72,1570.03C2081.72,1570.98 2078.76,1571.13 2079.28,1573.52C2081.76,1584.93 2083.46,1599.29 2085.48,1609.41C2087.63,1620.17 2089.39,1633.69 2092.06,1644.9C2093.44,1650.69 2092.78,1658.19 2093.24,1664.13C2094.85,1684.73 2093.93,1702.69 2093.93,1721.53" style="fill:none;stroke:black;stroke-width:1px;"/>
        <path d="M2093.86,1719.63C2093.88,1732.91 2095.1,1752.07 2094.09,1765.17C2092.38,1787.34 2092.95,1810.25 2092.95,1832.57C2092.95,1844.09 2093.26,1857.08 2091.01,1868.31C2086.13,1892.74 2078.09,1951.93 2067.87,1974.93C2057.69,1997.83 2064.37,1985.03 2053.21,2007.35C2049.14,2015.49 2041.86,2026.2 2039.12,2034.42C2038.58,2036.04 2033.89,2043.51 2033.89,2038.61" style="fill:none;stroke:black;stroke-width:1px;"/>
        <path d="M2088.15,1565.93C2084.33,1573.26 2081.26,1584.62 2071.88,1586.96C2068.12,1587.9 2063.7,1589.63 2059.63,1588.61C2058.93,1588.43 2055.59,1585.51 2055.06,1586.05C2054.68,1586.43 2055.14,1588.77 2055.24,1589.16C2055.56,1590.45 2055.93,1594.05 2055.42,1595.56C2053.85,1600.27 2051.45,1605.11 2049.94,1609.64C2048.22,1614.8 2041.69,1613.49 2038.05,1615.31C2036.97,1615.85 2033.76,1614.48 2032.93,1615.31C2032.38,1615.85 2032.75,1618.22 2032.75,1618.96C2032.75,1621.03 2032.18,1624.31 2031.1,1626.09C2030.1,1627.76 2029.71,1630.78 2028.36,1632.13C2027.19,1633.3 2024.9,1635.56 2024.15,1637.07C2023.02,1639.33 2021.61,1642.54 2019.77,1644.38C2015.6,1648.55 2011.29,1650.05 2005.32,1650.05C2003.69,1650.05 2002.55,1650.03 2001.12,1649.32C2000.82,1649.17 1998.95,1647.07 1998.74,1647.49C1997.67,1649.63 2000.68,1651.4 2001.12,1653.16C2001.49,1654.67 2001.54,1656.2 2001.85,1657.73C2002.22,1659.61 2001.65,1661.69 2002.03,1663.58C2003.09,1668.88 2003.86,1674.42 2003.86,1679.85C2003.86,1681.89 2004.57,1685.74 2003.67,1687.53C2003.04,1688.81 2001.05,1688.88 2000.2,1689.73C1997.53,1692.39 1989.45,1694.03 1985.39,1693.02C1982.97,1692.41 1981.38,1688.64 1979.72,1686.98C1973.93,1681.19 1967.28,1671.78 1965.46,1663.58C1963.2,1653.4 1965.39,1642.45 1962.9,1632.49C1961.77,1627.97 1957.68,1624.35 1955.22,1620.24C1951.27,1613.65 1948.94,1606.18 1946.26,1599.03C1943.52,1591.73 1943.38,1583.84 1941.51,1576.36C1940.55,1572.53 1937.52,1569.16 1935.65,1566.67C1932.83,1562.89 1930.49,1557.94 1929.07,1553.68C1927.44,1548.79 1923.81,1544.23 1921.94,1539.24C1920.68,1535.87 1920.09,1531.65 1918.28,1528.63C1918.05,1528.24 1916.78,1525.57 1916.45,1525.89C1913.82,1528.53 1918.53,1535.52 1919.93,1537.96C1920.59,1539.12 1921.33,1540.88 1921.76,1542.16C1922.28,1543.73 1923.01,1545.01 1923.59,1546.55C1925.62,1551.97 1926.93,1557.48 1929.07,1562.83C1931.54,1568.99 1935.34,1574.2 1936.93,1580.56C1938.7,1587.63 1938.03,1595.69 1938.03,1603.24C1938.03,1615.38 1936.4,1626.75 1929.07,1636.52C1924.31,1642.86 1915.73,1641.08 1909.51,1644.2C1907.13,1645.38 1903.4,1647.29 1900.55,1646.57C1898.62,1646.09 1896.04,1641.23 1895.24,1639.62C1892.61,1634.37 1895.47,1628.92 1897.62,1623.9C1900.38,1617.47 1902.92,1611.28 1902.92,1604.15C1902.92,1602.71 1903.38,1600.39 1902.92,1599.03C1900.35,1591.31 1897.87,1579.8 1899.27,1571.42C1900.82,1562.09 1903.4,1550.6 1901.46,1540.88C1900.56,1536.37 1897.84,1532.16 1897.07,1527.54C1895.55,1518.41 1897.29,1507.69 1897.99,1498.65C1898.87,1487.15 1898.92,1475.84 1900.55,1464.45C1901.16,1460.13 1902.76,1455.92 1903.47,1451.65C1904.89,1443.12 1911.07,1436.25 1913.16,1427.88C1914.75,1421.54 1913.12,1412.79 1912.07,1406.49C1910.83,1399.06 1912.99,1391.94 1913.89,1384.73C1914.77,1377.71 1916.79,1370.4 1918.47,1363.7C1919.89,1357.99 1918.47,1349.97 1918.47,1344.13C1918.47,1340.73 1918.83,1337.57 1918.83,1334.26C1918.83,1333.78 1919.14,1331.65 1918.83,1331.34C1917.96,1330.47 1916.25,1330.88 1915.17,1330.24C1913.78,1329.4 1913,1328.11 1911.7,1327.13C1910.12,1325.94 1907.85,1326.21 1906.22,1325.12C1903.82,1323.52 1902.27,1320.84 1900.18,1319.27C1893.47,1314.23 1885.35,1311.03 1878.42,1307.57C1876.94,1306.82 1876.02,1304.59 1874.76,1303.54C1872.43,1301.6 1868.92,1298.67 1867.08,1296.23C1866.45,1295.38 1865.61,1291.47 1864.71,1291.47" style="fill:none;stroke:black;stroke-width:1px;"/>
        <path d="M1913.16,1429.71C1912.86,1428.37 1912.35,1427.06 1912.25,1425.69C1912.12,1423.93 1917.34,1418.9 1918.28,1417.83C1920.24,1415.6 1923.48,1412.94 1926.51,1412.34C1927.52,1412.14 1928.64,1412.39 1929.62,1411.97C1937.28,1408.69 1945.79,1408.54 1953.57,1405.94C1955.34,1405.35 1956.69,1403.4 1958.33,1402.46C1960.64,1401.15 1963.39,1400.43 1966.01,1399.9C1974.55,1398.2 1983.66,1401.84 1991.61,1404.11C1995.99,1405.36 2001.33,1406.19 2004.59,1409.6C2008.91,1414.11 2012.87,1418.96 2017.94,1422.76C2021.94,1425.76 2028.54,1425.68 2032.2,1429.35C2033.86,1431 2034.76,1433.18 2036.41,1434.83C2040.33,1438.75 2044.64,1441.79 2048.29,1445.44C2048.67,1445.82 2050.17,1445.18 2050.67,1445.44C2053.3,1446.75 2055.51,1448.17 2057.98,1449.82C2059.65,1450.94 2058.47,1452.51 2059.45,1453.48" style="fill:none;stroke:black;stroke-width:1px;"/>
        <path d="M1983.38,1553.14C1979.9,1565.9 1988.54,1578.81 1990.33,1591.35C1991.62,1600.41 1990.32,1610.71 1992.52,1619.51C1993.28,1622.54 1992.5,1626 1993.25,1629.02C1995.41,1637.65 2000.27,1644.56 2002.94,1651.69" style="fill:none;stroke:black;stroke-width:1px;"/>
        <path d="M2025.8,1548.93C2023.38,1554.31 2024.79,1558.76 2024.15,1564.47C2023.25,1572.66 2023.48,1582.13 2025.07,1590.07C2025.69,1593.17 2027.53,1595.26 2028.54,1598.3C2029.74,1601.88 2029.71,1605.93 2031.29,1609.09C2032.34,1611.19 2036.04,1612.83 2036.04,1614.94" style="fill:none;stroke:black;stroke-width:1px;"/>
        <path d="M2057.62,1531.92C2053.91,1542.11 2056.05,1552.92 2053.96,1563.38C2053.46,1565.87 2051.98,1572.21 2053.23,1574.71C2054.22,1576.69 2055.3,1576.67 2056.15,1578.37C2057.35,1580.77 2057.17,1584.24 2058.35,1586.6C2058.84,1587.59 2059.81,1587.86 2059.81,1589.34" style="fill:rgb(166,147,133);stroke:black;stroke-width:1px;"/>
        <path d="M2024.12,1581.61C2025.98,1582.88 2028.17,1583.85 2030.43,1584.14C2031.55,1584.28 2032.7,1584.13 2033.82,1584.25C2038.96,1584.82 2044.16,1583.94 2048.34,1581.15C2049.98,1580.06 2050.96,1579.16 2052.01,1577.42C2052.18,1577.14 2053.21,1576 2053.21,1575.93" style="fill:none;stroke:black;stroke-width:1px;"/>
        <path d="M2025.16,1589.07C2028.39,1589.23 2030.82,1591.13 2033.93,1591.65C2037.09,1592.18 2040.51,1591.81 2043.63,1591.37C2045.16,1591.15 2046.48,1590.17 2047.88,1589.7C2048.44,1589.51 2048.8,1588.68 2049.25,1588.38C2050.65,1587.45 2051.65,1585.56 2052.7,1584.25C2053.7,1582.99 2055.28,1581.65 2055.79,1580.12C2055.95,1579.64 2056.88,1579.25 2056.88,1578.69" style="fill:none;stroke:black;stroke-width:1px;"/>
        <path d="M1860.58,1226.44C1855.77,1239.05 1854.47,1250.98 1852.6,1264.09C1852.16,1267.16 1851.87,1271.41 1852.39,1274.52C1855.3,1291.99 1870.76,1307.58 1885.95,1316.26C1891.74,1319.57 1897.67,1322.33 1903.54,1325.26C1905.53,1326.26 1907.38,1328.41 1909.27,1329.35C1910.25,1329.84 1909.75,1328.26 1909.88,1327.92C1910.23,1327.06 1911.65,1327.35 1912.55,1327.1" style="fill:none;stroke:black;stroke-width:1px;"/>
        <path d="M1657.22,1184.09C1664.62,1196.67 1665.68,1200.72 1673.38,1212.26C1675.88,1216.01 1685.26,1236.72 1690.47,1241.92C1695.95,1247.41 1701.19,1253.96 1706.93,1259.7C1712.42,1265.19 1720.32,1267.86 1724.71,1272.25C1725.22,1272.76 1739.18,1274.72 1742.78,1276.52C1748.87,1279.56 1769.55,1285.28 1806.94,1256.15C1809.65,1254.04 1843.58,1237.85 1846.27,1236.96C1848.85,1236.1 1849.59,1228.76 1850.71,1226.5C1853.73,1220.47 1856.95,1212.94 1861.69,1208.2C1861.96,1207.94 1861.86,1204.88 1861.95,1204.54C1862.74,1201.81 1864.87,1197.74 1867.44,1197.74" style="fill:none;stroke:black;stroke-width:1px;"/>
        <path d="M1719.5,1234.31C1723.29,1234.31 1729.37,1233.17 1732.93,1234.39C1741.25,1237.26 1751.88,1239.77 1760.66,1239.77" style="fill:none;stroke:black;stroke-width:1px;"/>
        <path d="M1693.33,1176.34C1694.24,1176.34 1695.89,1177.44 1696.76,1177.83C1699.06,1178.84 1701.53,1179.71 1704.07,1180.03C1707.43,1180.45 1710.92,1179.83 1714.3,1180.17C1717.55,1180.49 1720.73,1181.05 1723.96,1181.49C1727.28,1181.94 1729.49,1183.72 1732.3,1185.13C1734.66,1186.31 1737.43,1185.87 1739.93,1186.18C1743.53,1186.62 1747.49,1186.72 1751.08,1186.18C1751.61,1186.11 1753.84,1186.46 1754.23,1186.06" style="fill:none;stroke:black;stroke-width:1px;"/>
        <path d="M1753.67,1186.06C1758.21,1186.06 1763.41,1185.24 1767.91,1185.99C1770.84,1186.47 1773.86,1186.93 1776.82,1187.27C1780.05,1187.64 1782.91,1189.73 1786.08,1190.26C1789.98,1190.91 1794.5,1191.39 1798.35,1191.39C1798.63,1191.39 1797.9,1191.74 1797.66,1191.89C1797.25,1192.16 1797.06,1192.55 1796.63,1192.84C1795.31,1193.69 1793.68,1194.14 1792.46,1195.1C1788.71,1198.06 1783.85,1200.93 1779.1,1202.11C1777,1202.64 1774.92,1204.06 1772.81,1204.45C1767.19,1205.51 1761.14,1206.1 1755.64,1207.47C1752.87,1208.15 1749.54,1207.23 1746.7,1207.61C1742.87,1208.13 1738.08,1208.38 1734.32,1208.01C1725.99,1207.17 1717.52,1204.46 1710.87,1199.47C1706.76,1196.39 1703.65,1192.13 1699.6,1189.09C1697.43,1187.46 1695.55,1183.87 1694.79,1181.4C1694.43,1180.25 1693.15,1179.24 1692.78,1178.17C1692.64,1177.77 1690.95,1175.56 1691.1,1175.4C1691.26,1175.23 1693.9,1176.58 1693.9,1176.81" style="fill:none;stroke:black;stroke-width:1px;"/>
        <path d="M1744.46,1151.97C1747.14,1151.3 1750.96,1149.79 1753.88,1150.76C1757.3,1151.9 1763.79,1155.84 1765.9,1157.95C1766.29,1158.35 1767.56,1157.9 1768.08,1158.08C1771.65,1159.27 1773.33,1155.22 1775.62,1152.94C1776.82,1151.73 1777.08,1148.69 1778.39,1147.38C1778.46,1147.31 1776.76,1146.57 1776.44,1146.4C1775.49,1145.93 1773.76,1144.51 1772.64,1143.68C1770.37,1141.97 1769.61,1140.65 1767.91,1138.38C1765.74,1135.5 1763.17,1130.17 1761.1,1126.98C1760.58,1126.18 1756.11,1110.87 1756.18,1109.35C1756.27,1107.5 1756.46,1101.69 1756.24,1101.25C1755.66,1100.09 1753.4,1098 1752.5,1097.1C1748.7,1093.3 1743.51,1095.85 1738.55,1094.61C1737.44,1094.33 1734.13,1094.15 1734.6,1094.61C1735.14,1095.15 1734.19,1095.36 1733.85,1096.33C1731.77,1102.21 1730.24,1106.3 1729.01,1111.49C1727.12,1119.5 1721.46,1125.95 1715.97,1131.44C1713.11,1134.31 1710.06,1133.92 1708.09,1137.86C1707.57,1138.89 1705.38,1142.22 1705.83,1143.28C1706.48,1144.82 1706.96,1146.83 1708.12,1147.99C1709.03,1148.9 1711.14,1147.66 1711.43,1147.37C1711.65,1147.15 1712.6,1146.65 1712.95,1146.54C1714.76,1145.94 1716.78,1145.81 1718.75,1145.81C1719.07,1145.81 1723.68,1148.33 1725.02,1149.68C1727.16,1151.81 1726.6,1153.3 1729.49,1154.75C1730.48,1155.24 1732.58,1154.87 1733.72,1154.87C1738.54,1154.87 1743.14,1152.63 1747.48,1151.01" style="fill:none;stroke:black;stroke-width:1px;"/>
        <path d="M1708.16,1136.3C1705.39,1138.52 1706.23,1138.82 1702.92,1139.37C1696.81,1140.39 1689.24,1141.1 1682.86,1140.03C1677.32,1139.11 1670.22,1137.33 1665.73,1133.95C1662.77,1131.74 1659.78,1129.2 1657.37,1126.52C1656.4,1125.44 1654.52,1122.87 1653.93,1121.69C1653.17,1120.18 1652.62,1119 1651.9,1117.57C1650.12,1114.01 1649.24,1110.36 1648.25,1106.39C1647.91,1105.04 1646.42,1103.26 1646.42,1101.44" style="fill:none;stroke:black;stroke-width:1px;"/>
        <path d="M1668.13,1062.21C1672.66,1062.91 1677.07,1062.81 1681.35,1062.81C1687.96,1062.81 1694.55,1063.5 1700.83,1065.33C1701.47,1065.52 1702.11,1065.72 1702.74,1065.93C1708.38,1067.81 1713.14,1069.43 1718.11,1072.42C1723.05,1075.38 1726.18,1081.18 1731.23,1083.71C1732.58,1084.38 1735.78,1085.28 1737.14,1085.28C1740.57,1085.28 1743.17,1086.06 1745.95,1086.06C1749.5,1086.06 1752,1086.43 1755.3,1086.21C1755.91,1086.17 1757.72,1086.42 1757.99,1086.29C1760.74,1084.91 1764.07,1086.06 1766.91,1084.16C1768.3,1083.24 1770.92,1082.73 1771.86,1081.8C1772.31,1081.35 1778.74,1078.78 1778.95,1078.57C1779.12,1078.4 1779.35,1078.27 1779.6,1078.17C1780.32,1077.9 1781.28,1077.83 1781.96,1077.6C1784.04,1076.91 1803.89,1076.64 1808.19,1078.79C1811.8,1080.59 1816.46,1080.97 1820.55,1082.33C1824.08,1083.51 1829.16,1083.24 1831.94,1084.27" style="fill:none;stroke:black;stroke-width:1px;"/>
        <path d="M1832.3,1084.04C1837.64,1084.58 1839.61,1085.7 1843.99,1086.77C1845.94,1087.24 1851.87,1089.61 1852.91,1089.96C1855.86,1090.94 1858.67,1092.31 1861.52,1093.66C1863.42,1094.56 1867.85,1095.72 1868.04,1095.81C1871.25,1097.41 1875.7,1098.59 1879.03,1099.7C1880.72,1100.26 1886.91,1103.31 1888.38,1103.31C1889.16,1103.31 1890.64,1099.96 1890.64,1099.96C1890.64,1099.96 1890.31,1098.89 1890.64,1098.56C1891.06,1098.14 1891.34,1096.49 1891.82,1095.76C1892.41,1094.87 1893.35,1093.01 1894.62,1092C1895.02,1091.68 1896.68,1090.55 1896.33,1089.85C1896.14,1089.46 1894.72,1089.31 1894.29,1088.99C1892.71,1087.81 1890.98,1086.59 1889.67,1085.02C1886.91,1081.71 1885.43,1077.19 1884.73,1072.98C1884.17,1069.64 1884.83,1066.08 1884.83,1062.77C1884.83,1056.81 1884.45,1051.05 1884.08,1045.14C1883.88,1041.96 1884.72,1037.7 1883.44,1034.71C1882.69,1032.98 1881.07,1032.7 1880,1031.27C1877.14,1027.46 1874.08,1022.64 1872.26,1018.26C1870.93,1015.09 1871.4,1010.65 1871.4,1007.3C1871.4,1005.74 1871.68,1003.64 1870.75,1002.25C1870.27,1001.52 1868.68,1001.87 1867.96,1001.71C1867.05,1001.51 1865.38,1000.32 1864.73,999.669C1862.94,997.879 1861.47,995.764 1859.68,993.972C1855.65,989.937 1851.02,986.576 1846.67,982.901C1840.14,977.371 1833.41,972.28 1826.68,966.993C1820.64,962.244 1814.42,957.842 1807.44,954.739C1804.94,953.627 1801.93,953.502 1799.27,953.019C1791.68,951.639 1785.98,950.232 1778.28,950.232" style="fill:none;stroke:black;stroke-width:1px;"/>
        <path d="M1779.07,950.439C1774.16,948.806 1768.68,950.089 1763.59,949.58C1760.66,949.287 1757.83,947.523 1754.99,946.892C1747.93,945.325 1739.7,945.436 1732.95,947.967C1731.31,948.585 1730.02,949.952 1728.65,950.977C1724.4,954.167 1721,957.714 1717.9,962.048C1716.12,964.552 1714.75,967.349 1712.53,969.572C1709.4,972.698 1706.75,976.102 1703.61,979.246C1700.14,982.711 1696.47,986.189 1693.72,990.318C1692.25,992.525 1691.33,995.021 1689.96,997.304C1687.88,1000.76 1685.8,1003.59 1684.37,1007.41C1683.83,1008.83 1682.63,1010.06 1682.22,1011.49C1680.95,1015.94 1679.23,1020.56 1677.6,1024.93C1676.14,1028.81 1674.38,1032.76 1672.87,1036.54C1671.69,1039.48 1669.44,1041.88 1668.14,1044.49C1667.54,1045.69 1667.64,1047.42 1667.06,1048.58C1666.35,1050.01 1666.63,1052.32 1666.63,1053.95C1666.63,1054.39 1666.43,1055.49 1666.63,1055.89C1668.03,1058.68 1666.71,1059.79 1667.7,1063" style="fill:none;stroke:black;stroke-width:1px;"/>
    </g>
    <g transform="matrix(1,0,0,1,-422,-632.691)">
        <path d="M1124.3,953.997C1122.11,953.997 1120.43,955.602 1119.2,957.234C1116.12,961.297 1114.44,965.695 1113.2,970.568C1112.43,973.59 1117.36,975.949 1119.82,974.686C1121.62,973.755 1120.23,970.794 1120.98,969.268C1121.63,967.936 1123.19,968.967 1123.83,968.312C1124.16,967.975 1124.09,966.189 1124.23,965.641C1124.7,963.714 1125.92,962.159 1126.79,960.405C1127.4,959.152 1126.08,956.453 1125.33,955.7C1124.87,955.242 1125.52,953.971 1124.52,953.971" style="fill:none;stroke:black;stroke-width:1px;"/>
    </g>
    <g transform="matrix(1,0,0,1,-422,-632.691)">
        <path d="M1107.41,962.136C1107.41,955.159 1111.99,950.281 1114.38,944.19C1114.99,942.641 1114.78,940.784 1115.5,939.342C1116.32,937.703 1118.4,937.138 1119.05,935.226C1120.01,932.428 1114.49,932.287 1113.29,930.706C1112.46,929.614 1113.39,926.586 1112.67,925.934C1112.33,925.625 1111.18,929.218 1111.05,929.738C1110.45,932.155 1107.87,933.92 1107.87,936.437" style="fill:none;stroke:black;stroke-width:1px;"/>
    </g>
    <g transform="matrix(1,0,0,1,-422,-632.691)">
        <path d="M1128.09,983.497C1127.48,982.819 1125.41,986.022 1125.15,986.535C1124.48,987.842 1122.59,987.133 1121.74,987.939C1120.88,988.747 1121.28,990.828 1120.91,991.994C1120.7,992.637 1120.02,993.492 1120.02,994.168" style="fill:none;stroke:black;stroke-width:1px;"/>
    </g>
    <g transform="matrix(1,0,0,1,-422,-632.691)">
        <path d="M1111.91,979.127C1111.91,981.593 1114.54,983.629 1113.4,986.468C1113.03,987.382 1112.52,990.541 1112.52,990.514" style="fill:none;stroke:black;stroke-width:1px;"/>
    </g>
    <g transform="matrix(1,0,0,1,-422,-632.691)">
        <path d="M1373.79,962.109C1373.79,966.566 1377.27,970.108 1379.19,973.94C1380.89,977.353 1378.77,980.238 1377.97,983.381C1377.58,984.936 1376.75,986.736 1374.63,986.074C1370.88,984.898 1371.89,982.167 1371.11,979.142C1370.52,976.857 1368.7,974.366 1369.37,971.773C1369.7,970.47 1370.64,968.972 1371.38,967.834C1372.26,966.473 1371.84,962.238 1373.94,962.238" style="fill:none;stroke:black;stroke-width:1px;"/>
    </g>
    <g transform="matrix(1,0,0,1,-422,-632.691)">
        <path d="M1387.4,938.796C1387.4,938.629 1387.48,939.13 1387.57,939.27C1387.77,939.582 1388.03,939.834 1388.26,940.131C1388.87,940.949 1389.39,941.78 1389.72,942.744C1390.62,945.337 1390.37,948.632 1390.37,951.52C1390.37,954.929 1391.01,959.017 1390.18,962.273C1389.93,963.254 1390.45,964.541 1390.12,965.483C1388.86,969.097 1388.55,973.683 1388.55,977.599" style="fill:none;stroke:black;stroke-width:1px;"/>
    </g>
    <g transform="matrix(1,0,0,1,-422,-632.691)">
        <path d="M1384.43,987.156C1384.43,988.48 1383.16,989.559 1382.91,990.849C1382.48,993.104 1382.41,995.406 1382.02,997.688C1381.78,999.098 1380.69,1000.84 1380.69,1002.18" style="fill:none;stroke:black;stroke-width:1px;"/>
    </g>
    <g transform="matrix(1,0,0,1,-422,-632.691)">
        <path d="M1903.99,1143.57C1903.99,1147.72 1905.45,1152.18 1904.4,1156.32C1903.79,1158.7 1900.95,1159.85 1899.37,1161.41C1898.57,1162.21 1897.86,1164.35 1896.55,1164.35" style="fill:none;stroke:black;stroke-width:1px;"/>
    </g>
    <g transform="matrix(1,0,0,1,-422,-632.691)">
        <path d="M1923.43,1116.84C1923.43,1120.38 1921.41,1123.54 1920.71,1126.88C1920.18,1129.38 1920.73,1132.12 1920.53,1134.69C1920.38,1136.6 1919.74,1138.45 1919.27,1140.28C1918.49,1143.38 1916.63,1146.35 1915.66,1149.41C1915.33,1150.46 1913.83,1151.91 1913.83,1152.68C1913.83,1152.85 1913.83,1152.34 1913.83,1152.17L1913.83,1148.04C1913.83,1144.95 1913.22,1141.91 1913.65,1138.78C1914.03,1136.04 1915.94,1132.94 1917.15,1130.47C1918.26,1128.23 1918.37,1125.34 1919.32,1122.93C1920.05,1121.09 1923.03,1118.8 1923.03,1117.17" style="fill:none;stroke:black;stroke-width:1px;"/>
    </g>
    <g transform="matrix(1,0,0,1,-422,-632.691)">
        <path d="M1879.6,1188.25C1879.41,1188.05 1878.9,1188.85 1878.83,1188.96C1878.48,1189.49 1878.7,1190.4 1879.32,1190.71C1880.39,1191.24 1880.44,1189.92 1880.44,1189.23C1880.44,1189.08 1880.67,1188.89 1880.58,1188.7C1880.53,1188.59 1879.99,1188.56 1879.86,1188.6C1879.83,1188.62 1879.64,1188.74 1879.64,1188.68" style="fill:none;stroke:black;stroke-width:1px;"/>
    </g>
    <g transform="matrix(1,0,0,1,-422,-632.691)">
        <path d="M1879.52,1189.73C1879.52,1191.45 1881.56,1190.82 1882.2,1192.1C1883.49,1194.67 1884.26,1199.56 1881.19,1201.56C1880.16,1202.22 1878.3,1203.14 1876.89,1202.65C1876.02,1202.35 1875.18,1201.9 1874.33,1201.35C1873.54,1200.83 1873.44,1199.67 1872.95,1199.17C1872.84,1199.06 1872.81,1198.52 1872.81,1198.44C1872.81,1198.34 1872.77,1197.96 1872.77,1198.07" style="fill:none;stroke:black;stroke-width:1px;"/>
    </g>
    <g transform="matrix(1,0,0,1,-422,-632.691)">
        <path d="M1874.45,1198.12C1874.45,1199.94 1875.78,1200.99 1877.58,1200.99C1877.89,1200.99 1878.87,1201.1 1879.07,1200.89C1879.43,1200.53 1880.55,1200.28 1880.79,1199.79C1881.59,1198.16 1881.72,1195.41 1881.09,1193.6C1880.78,1192.71 1879.95,1192.34 1879.57,1191.56C1879.37,1191.17 1879.38,1190.75 1878.87,1190.75" style="fill:none;stroke:black;stroke-width:1px;"/>
    </g>
    <g transform="matrix(1,0,0,1,-422,-632.691)">
        <path d="M1885.94,1184.23C1885.94,1185.19 1885.9,1186.12 1886.12,1187.04C1886.26,1187.56 1886.17,1188.15 1886.48,1188.62C1886.68,1188.93 1887.24,1188.95 1887.56,1189.03C1888.35,1189.23 1890.46,1189.99 1890.97,1188.95C1891.39,1188.11 1891.22,1187.12 1891.22,1186.09C1891.22,1185.84 1891.34,1185.22 1891.22,1184.98C1890.8,1184.16 1889.12,1184.05 1888.3,1184.05C1887.93,1184.05 1887.14,1184.32 1886.87,1184.14C1886.74,1184.06 1886.82,1183.78 1886.73,1183.73C1886.51,1183.61 1886.26,1183.94 1886.01,1183.94" style="fill:none;stroke:black;stroke-width:1px;"/>
    </g>
    <g transform="matrix(1,0,0,1,-422,-632.691)">
        <path d="M1887.95,1183.71C1887.95,1183.14 1887.11,1182.6 1886.9,1182.07C1886.72,1181.63 1886.54,1181.21 1886.43,1180.77C1886.31,1180.27 1886.49,1179.72 1886.26,1179.27C1885.91,1178.6 1885.13,1178.21 1884.94,1177.32C1884.83,1176.79 1884.82,1176.18 1884.82,1175.64C1884.82,1175.57 1884.7,1175.17 1884.77,1175.1C1885.1,1174.79 1886.82,1174.05 1887.27,1174.74C1888.33,1176.36 1886.76,1178.11 1887.77,1179.65C1888.32,1180.48 1889.45,1181.66 1890.05,1182.26C1890.2,1182.4 1890.26,1182.97 1890.48,1183.08C1890.65,1183.16 1890.93,1182.86 1891.06,1182.79C1891.68,1182.47 1892.52,1182.88 1892.8,1183.42C1893,1183.83 1893.41,1185.08 1893.16,1185.56C1893.08,1185.74 1892.13,1186.73 1892.27,1186.89C1892.38,1187 1892.84,1187.16 1893.02,1187.29C1893.9,1187.95 1894.97,1188.94 1896.11,1188.94" style="fill:none;stroke:black;stroke-width:1px;"/>
    </g>
    <g transform="matrix(1,0,0,1,-422,-632.691)">
        <path d="M1896.09,1189.03C1896.82,1189.78 1898.1,1189.05 1898.72,1189.67C1898.92,1189.87 1899.14,1190.08 1899.3,1190.32C1900.53,1192.21 1897.79,1192.43 1896.45,1192.21C1895.53,1192.05 1896.04,1191.31 1895.69,1190.95C1895.49,1190.74 1894.9,1190.56 1894.61,1190.41C1893.65,1189.93 1892.79,1189.38 1891.8,1189.07C1891.44,1188.96 1891.37,1188.55 1890.91,1188.55" style="fill:none;stroke:black;stroke-width:1px;"/>
    </g>
    <g transform="matrix(1,0,0,1,-422,-632.691)">
        <path d="M1895.31,1176.21C1895.31,1177 1894.89,1178.33 1895.13,1179.06C1895.36,1179.71 1896.55,1180.19 1897.1,1180.52C1897.45,1180.72 1898.83,1181.61 1899.21,1181.22C1899.62,1180.82 1899.78,1180.43 1899.89,1179.88C1899.98,1179.43 1900.26,1177.72 1899.9,1177.37C1899.11,1176.57 1897.68,1176.29 1896.68,1175.79C1896.17,1175.53 1895.47,1176.03 1895.07,1176.03" style="fill:none;stroke:black;stroke-width:1px;"/>
    </g>
    <g transform="matrix(1,0,0,1,-422,-632.691)">
        <path d="M1918.03,1144.02C1918.03,1144.54 1918.97,1145.51 1919.27,1145.96C1919.97,1147.02 1920.74,1147.92 1921.52,1148.95C1921.89,1149.45 1922.18,1150.25 1922.58,1150.62C1922.73,1150.76 1923.44,1149.61 1923.5,1149.43C1923.78,1148.52 1922.98,1147.93 1922.51,1147.3C1921.9,1146.49 1920.73,1144.96 1920.43,1144C1920.27,1143.49 1920.03,1143.13 1919.84,1142.76C1919.73,1142.54 1920.2,1142.48 1919.95,1142.23C1919.54,1141.82 1918.82,1142.57 1918.82,1142.99" style="fill:none;stroke:black;stroke-width:1px;"/>
    </g>
    <g transform="matrix(1,0,0,1,-422,-632.691)">
        <path d="M1922.59,1127.38C1922.55,1127.38 1923.6,1126.45 1923.93,1126.76C1924.11,1126.92 1923.81,1127.52 1923.73,1127.66C1923.31,1128.37 1922.09,1129.01 1923.51,1129.5C1923.91,1129.64 1924.25,1129.15 1924.5,1128.91C1925.25,1128.15 1925.83,1127.3 1925.58,1126.12C1925.5,1125.7 1925.16,1125.43 1924.89,1125.16C1923.5,1123.77 1921.69,1124.16 1921.14,1126.29C1920.81,1127.63 1922.21,1127.15 1922.89,1126.91C1923.01,1126.87 1923.68,1126.81 1923.68,1126.97" style="fill:none;stroke:black;stroke-width:1px;"/>
    </g>
    <g transform="matrix(1,0,0,1,-422,-632.691)">
        <path d="M1671.39,1057.6C1671.39,1056.19 1672.54,1055.38 1673.14,1054.16C1675.62,1049.19 1681.1,1047.38 1685.86,1045.88C1687.98,1045.21 1691,1045.65 1693.33,1045.65C1703.14,1045.65 1714.98,1050.36 1721.9,1057.28C1724.14,1059.52 1728.28,1063.31 1728.28,1066.7C1728.28,1066.94 1728.02,1066.28 1727.88,1066.07C1727.66,1065.74 1727.22,1065.23 1726.86,1064.96C1725.61,1064.02 1724.45,1063.38 1722.96,1062.78C1718.48,1060.99 1713.49,1059.38 1708.61,1058.37C1701.7,1056.94 1695.28,1055.76 1688.21,1054.57C1686.08,1054.21 1683,1053.5 1680.79,1054.05C1678.18,1054.7 1674.57,1055.9 1672.26,1057.03C1671.5,1057.4 1671.83,1058.32 1670.83,1058.32" style="fill:none;stroke:black;stroke-width:0.4px;"/>
    </g>
    <g transform="matrix(1,0,0,1,-422,-632.691)">
        <path d="M1773.36,1070.75C1773.67,1069.38 1775.19,1068.4 1775.61,1067.07C1777.75,1060.19 1787.64,1058.75 1793.6,1057.93C1803.04,1056.64 1814.15,1054.95 1823.71,1056.76C1828.79,1057.72 1833.66,1061.19 1837.93,1063.98C1840.02,1065.36 1843.04,1067.62 1844.44,1069.76C1845.19,1070.91 1845.91,1072.59 1846.78,1073.51C1847.75,1074.55 1848.24,1076.16 1848.97,1077.37C1849.09,1077.55 1849.38,1078.8 1849.51,1078.8C1849.84,1078.8 1848.87,1078.59 1848.6,1078.4C1848.2,1078.1 1847.63,1077.62 1847.34,1077.22C1846.21,1075.72 1844.07,1074.81 1842.56,1073.67C1837.36,1069.77 1832.17,1070.11 1826.42,1068.12C1824.19,1067.35 1820.58,1067.8 1818.21,1067.8C1810.85,1067.8 1803.4,1068.56 1796.46,1070.27C1792.99,1071.12 1789.03,1070.23 1785.78,1071.83C1783.87,1072.77 1778.26,1072.85 1776.4,1071.92C1775.55,1071.5 1773.98,1071.6 1773.98,1070.33" style="fill:none;stroke:black;stroke-width:0.4px;"/>
    </g>
    <g transform="matrix(0.882406,0,0,0.882406,-279.459,-526.665)">
        <path d="M1171.06,901.625C1174.73,901.625 1178.27,898.193 1181.79,897.3C1184.68,896.567 1187.81,896.961 1190.73,896.23C1193.98,895.415 1197.14,894.572 1200.42,893.738C1203.22,893.027 1206.81,893.594 1209.74,893.594C1214.54,893.594 1219.34,893.05 1223.95,893.05C1226.02,893.05 1228.65,893.673 1230.63,893.256C1234.19,892.509 1238.5,890.827 1237.54,887.013C1237.31,886.076 1236.41,885.496 1235.9,884.735C1233.4,880.93 1225.73,879.968 1221.7,880.968C1219.59,881.492 1217.47,882.624 1215.35,883.056C1204.87,885.195 1192.77,884.011 1183.52,890.028C1180.9,891.736 1177.69,891.606 1176.25,894.437C1175.84,895.25 1174.41,895.913 1173.75,896.56C1172.64,897.659 1171.81,899.365 1170.72,900.379C1170.6,900.489 1169.62,901.163 1169.62,901.384" style="fill:none;stroke:black;stroke-width:0.45px;"/>
    </g>
    <g transform="matrix(0.916984,0,0,0.916984,-313.562,-557.571)">
        <path d="M1285.16,891.002C1284.58,891.002 1284.31,892.338 1284.01,892.932C1283.54,893.865 1282.37,894.463 1281.88,895.419C1280.92,897.31 1278.72,897.939 1281.99,898.955C1285.9,900.173 1289.53,898.653 1293.17,897.731C1296.89,896.789 1300.91,895.725 1304.66,895.006C1308.37,894.295 1310.88,896.196 1314.19,897.228C1318.75,898.646 1322.03,902.652 1326.4,903.999C1327.75,904.413 1329.16,904.494 1330.57,904.784C1332.58,905.202 1335.86,906.358 1337.97,905.688C1339.62,905.166 1341.03,902.603 1341.74,901.174C1342.55,899.525 1340.66,897.957 1339.61,897.164C1336.76,895.022 1333.9,895.299 1330.74,893.442C1328.51,892.131 1326.32,889.803 1323.63,889.29C1314.73,887.593 1305.26,889.337 1296.38,887.662C1294.31,887.271 1289.75,890.149 1287.64,890.868C1286.13,891.384 1286.59,891.716 1285.16,891.002Z" style="fill:none;stroke:black;stroke-width:0.44px;"/>
    </g>
    <g transform="matrix(1,0,0,1,-422,-632.691)">
        <path d="M1756.58,1430.55L1756.58,1430.28" style="fill:none;stroke:black;stroke-width:1px;"/>
    </g>
    <g transform="matrix(1,0,0,1,-416.321,-649.32)">
        <path d="M1691.39,1611.64C1692.28,1613.39 1690.05,1618.17 1689.58,1619.99C1687.7,1627.42 1685.35,1626.83 1681.71,1634C1680.06,1637.25 1678.99,1647.59 1677.52,1650.48C1676.93,1651.65 1677.23,1654.91 1677.23,1654.5" style="fill:none;stroke:black;stroke-width:1px;"/>
    </g>
    <g transform="matrix(1,0,0,1,-412,-650.691)">
        <path d="M1615.9,1483.11C1615.9,1491.89 1605.39,1503.94 1603.14,1512.82C1599.01,1529.12 1598.21,1546.64 1594.17,1562.77C1590.8,1576.23 1585.91,1588.04 1588.6,1602.27C1589.54,1607.23 1589.48,1612.83 1592.75,1617.18C1602.63,1630.36 1617.59,1635.34 1630.93,1644.09C1641.49,1651.01 1653.84,1655.46 1667.25,1655.46" style="fill:none;stroke:black;stroke-width:1px;"/>
    </g>
    <g transform="matrix(0.961813,0,0,0.957885,-348.356,-580.938)">
        <path d="M1666.63,1656.23C1681.63,1656.23 1693.72,1652.23 1707.03,1645.52C1713.21,1642.41 1720.52,1640.47 1727.02,1638.82C1733.09,1637.28 1740.12,1631.55 1745.15,1627.74C1747.92,1625.64 1752.3,1625.24 1755.39,1623.42C1764.14,1618.25 1773.28,1613.5 1781.4,1607.37C1783.77,1605.57 1785.53,1602.93 1786.55,1600.34C1787.64,1597.55 1798.73,1589.5 1801.88,1587.41C1811.59,1580.96 1818.2,1568.98 1826.38,1560.72C1827.56,1559.53 1827.51,1557.73 1827.87,1556.23C1828.62,1553.11 1833.96,1546.42 1836.01,1543.66C1838.69,1540.07 1843.44,1539.03 1845.9,1535.73C1849.68,1530.66 1851.8,1524.78 1855.7,1519.83C1858.1,1516.8 1862.48,1514.94 1864.23,1511.42C1866.24,1507.38 1868,1502.61 1870.37,1498.93C1873.7,1493.76 1878.86,1489.92 1881.9,1484.55C1887.9,1473.96 1892.39,1462.37 1898.54,1451.82C1903.7,1442.95 1913.69,1434.86 1913.69,1423.79" style="fill:none;stroke:black;stroke-width:1.04px;"/>
    </g>
    <g transform="matrix(1,0,0,1,-422,-632.691)">
        <path d="M1495.87,1913.13C1496.31,1911.84 1496.76,1910.7 1497.39,1909.42C1498.28,1907.63 1500.04,1906.12 1500.65,1904.13C1501.53,1901.28 1502.56,1898.66 1502.56,1895.52C1502.56,1892.86 1502.05,1892.12 1501.07,1890.14C1500.88,1889.77 1500.37,1889.1 1500.01,1889.1" style="fill:none;stroke:black;stroke-width:1px;"/>
    </g>
    <g transform="matrix(1,0,0,1,-422,-632.691)">
        <path d="M1497.99,1889.29C1497.99,1891.48 1495.65,1893.13 1495.11,1895.24C1494.35,1898.21 1493.64,1901.41 1492.74,1904.28C1492.2,1906.01 1492.69,1908.83 1492.69,1910.63C1492.69,1911.17 1493.14,1911.91 1493.55,1912.32C1493.71,1912.48 1493.98,1913.19 1493.98,1912.84" style="fill:none;stroke:black;stroke-width:1px;"/>
    </g>
    <g transform="matrix(1,0,0,1,-422,-632.691)">
        <path d="M1493.09,1908.49C1494.34,1908.49 1495.95,1908.11 1496.73,1907.06C1496.86,1906.88 1497.72,1906.13 1497.37,1905.8C1497.05,1905.49 1496.51,1905.01 1496.06,1904.87C1495.96,1904.84 1495.3,1904.66 1495.33,1904.6C1495.37,1904.51 1496.21,1904.5 1496.31,1904.47C1497.04,1904.24 1498.56,1903.19 1498.91,1902.46C1499.14,1901.99 1498.81,1900.8 1498.24,1900.8C1497.95,1900.8 1498.82,1900.6 1498.97,1900.36C1499.3,1899.85 1499.99,1899.48 1500.18,1898.85C1500.35,1898.3 1500.66,1896.75 1500.37,1896.18C1500.17,1895.79 1499.24,1896 1499.19,1895.55C1499.16,1895.27 1499.68,1895.26 1499.92,1895.1C1500.28,1894.86 1501.3,1893.23 1500.8,1892.73C1500.21,1892.14 1498.83,1889.86 1498.83,1889.18" style="fill:none;stroke:black;stroke-width:1px;"/>
    </g>
    <g transform="matrix(1,0,0,1,-422,-632.691)">
        <path d="M1492.45,1911.25C1492.45,1910.3 1491.56,1909.09 1491.3,1908.04C1490.79,1906 1490.24,1903.7 1490.24,1901.55C1490.24,1900.91 1489.96,1898.74 1490.42,1898.27C1490.89,1897.78 1491.93,1897.12 1492.54,1896.5C1494.22,1894.81 1494.7,1892.27 1495.63,1890.39C1495.83,1889.99 1494.63,1890.97 1494.63,1890.53C1494.63,1888.58 1493.71,1883.89 1490.69,1885.39C1489.48,1885.99 1488.04,1885.93 1486.78,1886.56C1484.51,1887.68 1482.53,1890.53 1483.26,1893.43C1483.78,1895.47 1485.44,1894.92 1486.45,1895.93C1486.7,1896.18 1487.52,1895.95 1487.79,1896.22C1488.02,1896.45 1488.65,1896.19 1488.85,1896.38C1489.05,1896.58 1488.73,1897.64 1488.65,1897.81C1487.92,1899.25 1487.81,1900.16 1487.81,1901.76C1487.81,1904.84 1488.88,1908.74 1490.53,1911.27C1491.21,1912.3 1491.52,1913.31 1492.3,1914.36C1492.45,1914.56 1493.38,1915.84 1493.38,1915.28" style="fill:none;stroke:black;stroke-width:1px;"/>
    </g>
    <g transform="matrix(1,0,0,1,-422,-632.691)">
        <path d="M1529.13,1869.09C1529.48,1868.39 1529.01,1867.24 1529.27,1866.5C1530.07,1864.14 1530.02,1861.28 1531.92,1859.36C1533.17,1858.1 1534.68,1858.52 1536.24,1858.91C1538.63,1859.51 1532.84,1856.01 1532.46,1856.75C1532.41,1856.86 1531.49,1857.19 1531.34,1857.26C1530.57,1857.64 1529.98,1858.49 1529.48,1858.98C1528.48,1859.95 1528.19,1862.39 1527.78,1863.7C1527.63,1864.17 1527.74,1865.67 1527.41,1865.98C1526.61,1866.76 1527.51,1869.58 1527.51,1869.3" style="fill:none;stroke:black;stroke-width:1px;"/>
    </g>
    <g transform="matrix(1,0,0,1,-422,-632.691)">
        <path d="M1446.41,1929.42C1446.41,1928.3 1447.51,1927.71 1448.27,1926.96C1450.34,1924.87 1452.02,1922.43 1454.06,1920.37C1456.11,1918.3 1459.04,1916.13 1460.9,1914.25C1462.98,1912.13 1469.14,1912.51 1472.1,1912.51C1476.03,1912.51 1481.42,1911.52 1485.11,1912.67C1490.05,1914.21 1496.28,1914.67 1501.55,1914.67" style="fill:none;stroke:black;stroke-width:1px;"/>
    </g>
    <g transform="matrix(1,0,0,1,-422,-632.691)">
        <path d="M1466.21,1895.03C1471.61,1890.05 1476.91,1886.55 1484.87,1886.55" style="fill:none;stroke:black;stroke-width:1px;"/>
    </g>
    <g transform="matrix(1,0,0,1,-422,-632.691)">
        <path d="M1495.39,1888.3C1496.91,1889.06 1499.17,1887.87 1500.79,1888.37C1504.67,1889.57 1509.44,1890.9 1513.67,1890.9" style="fill:none;stroke:black;stroke-width:1px;"/>
    </g>
    <g transform="matrix(1,0,0,1,-422,-632.691)">
        <path d="M1481.68,1875.33C1482.44,1873.2 1485.36,1871.16 1487.22,1869.92C1491.7,1866.94 1500.35,1863.83 1506.42,1865.69C1510.45,1866.94 1515.75,1867.86 1520.01,1867.86" style="fill:none;stroke:black;stroke-width:1px;"/>
    </g>
</svg>
