<?xml version="1.0" encoding="UTF-8" standalone="no"?>
<!DOCTYPE svg PUBLIC "-//W3C//DTD SVG 1.1//EN" "http://www.w3.org/Graphics/SVG/1.1/DTD/svg11.dtd">
<svg width="100%" height="100%" viewBox="0 0 300 400" version="1.1" xmlns="http://www.w3.org/2000/svg" xmlns:xlink="http://www.w3.org/1999/xlink" xml:space="preserve" xmlns:serif="http://www.serif.com/" style="fill-rule:evenodd;clip-rule:evenodd;stroke-linecap:round;stroke-linejoin:round;stroke-miterlimit:1.5;">
    <g id="Eye" transform="matrix(1,0,0,1,-354.784,-94.8802)">
        <g transform="matrix(0.900195,0,0,0.92568,-0.406381,-109.239)">
            <ellipse cx="560.087" cy="436.578" rx="145.274" ry="191.542" style="fill:white;stroke:black;stroke-width:29.66px;"/>
        </g>
        <g transform="matrix(0.900195,0,0,0.92568,1.4409,-88.8932)">
            <path d="M414.067,421.706C414.067,391.517 449.055,386.862 469.444,399.223C479.723,405.455 489.808,417.497 496.783,427.255C501.252,433.507 508.637,439.736 516.534,440.749C533.157,442.884 541.414,431.726 554.184,423.677C577.447,409.015 597.365,396.127 625.271,393.794C639.245,392.626 658.574,394.851 671.212,401.219C676.005,403.634 678.504,409.348 683.653,411.9C689.289,414.693 699.802,415.568 699.802,407.966" style="fill:none;stroke:black;stroke-width:29.66px;"/>
        </g>
        <g transform="matrix(0.900195,0,0,0.92568,1.4409,-88.8932)">
            <path d="M468.237,408.606C468.237,469.516 498.52,528.812 569.962,521.051C582.203,519.721 592.584,506.025 599.99,497.636C606.807,489.913 613.121,480.84 618.519,472.109C620.94,468.194 641.713,412.216 641.713,405.946" style="fill:none;stroke:black;stroke-width:29.66px;"/>
        </g>
        <g transform="matrix(0.900195,0,0,0.92568,1.4409,-88.8932)">
            <path d="M511.181,452.291C511.181,492.12 567.036,475.304 579.249,450.704C580.706,447.769 589.69,429.16 586.837,426.212C582.343,421.568 568.665,442.243 566.798,444.053C559.666,450.97 540.217,454.753 530.908,454.753" style="fill:none;stroke:black;stroke-width:29.66px;"/>
        </g>
    </g>
</svg>
