<?xml version="1.0" encoding="UTF-8" standalone="no"?>
<!DOCTYPE score-partwise PUBLIC "-//Recordare//DTD MusicXML 1.0 Partwise//EN" "http://www.musicxml.org/dtds/partwise.dtd">
<score-partwise>
	<work>
		<work-title></work-title>
	</work>
	<identification>
		<creator type="composer"></creator>
		<encoding>
			<encoder></encoder>
			<software>TablEdit for Mac</software>
		</encoding>
	</identification>
	<part-list>
		<score-part id="P1">
			<part-name>Bass</part-name>
			<score-instrument id="P1-I1">
				<instrument-name>Electric Bass (fingered)</instrument-name>
			</score-instrument>
			<midi-instrument id="P1-I1">
				<midi-channel>1</midi-channel>
				<midi-program>34</midi-program>
			</midi-instrument>
		</score-part>
	</part-list>
	<part id="P1">
		<measure number="1">
			<attributes>
				<divisions>240</divisions>
				<key>
					<fifths>0</fifths>
				</key>
				<time>
					<beats>4</beats>
					<beat-type>4</beat-type>
				</time>
				<clef>
					<sign>TAB</sign>
					<line>5</line>
					<clef-octave-change>-1</clef-octave-change>
				</clef>
				<staff-details>
					<staff-lines>4</staff-lines>
					<staff-tuning line="1">
						<tuning-step>C</tuning-step>
						<tuning-octave>1</tuning-octave>
					</staff-tuning>
					<staff-tuning line="2">
						<tuning-step>G</tuning-step>
						<tuning-octave>1</tuning-octave>
					</staff-tuning>
					<staff-tuning line="3">
						<tuning-step>D</tuning-step>
						<tuning-octave>2</tuning-octave>
					</staff-tuning>
					<staff-tuning line="4">
						<tuning-step>A</tuning-step>
						<tuning-octave>2</tuning-octave>
					</staff-tuning>
				</staff-details>
			</attributes>
			<sound tempo="120"/>
			<note>
				<pitch>
					<step>E</step>
					<octave>2</octave>
				</pitch>
				<duration>60</duration>
				<voice>1</voice>
				<type>16th</type>
				<stem>up</stem>
				<beam number="2">begin</beam>
				<notations>
					<technical>
						<string>2</string>
						<fret>2</fret>
					</technical>
				</notations>
			</note>
			<note>
				<pitch>
					<step>C</step>
					<octave>2</octave>
				</pitch>
				<duration>60</duration>
				<voice>1</voice>
				<type>16th</type>
				<stem>up</stem>
				<beam number="2">continue</beam>
				<notations>
					<technical>
						<string>3</string>
						<fret>5</fret>
					</technical>
				</notations>
			</note>
			<note>
				<pitch>
					<step>E</step>
					<octave>2</octave>
				</pitch>
				<duration>120</duration>
				<voice>1</voice>
				<type>eighth</type>
				<stem>up</stem>
				<beam number="1">end</beam>
				<notations>
					<technical>
						<string>2</string>
						<fret>2</fret>
					</technical>
				</notations>
			</note>
			<forward>
				<duration>120</duration>
			</forward>
			<note>
				<pitch>
					<step>D</step>
					<octave>2</octave>
				</pitch>
				<duration>60</duration>
				<voice>1</voice>
				<type>16th</type>
				<stem>up</stem>
				<beam number="2">begin</beam>
				<notations>
					<technical>
						<string>2</string>
						<fret>0</fret>
					</technical>
				</notations>
			</note>
			<note>
				<pitch>
					<step>C</step>
					<octave>2</octave>
				</pitch>
				<duration>60</duration>
				<voice>1</voice>
				<type>16th</type>
				<stem>up</stem>
				<beam number="2">end</beam>
				<notations>
					<technical>
						<string>3</string>
						<fret>5</fret>
					</technical>
				</notations>
			</note>
			<note>
				<pitch>
					<step>D</step>
					<octave>2</octave>
				</pitch>
				<duration>60</duration>
				<voice>1</voice>
				<type>16th</type>
				<stem>up</stem>
				<beam number="2">begin</beam>
				<notations>
					<technical>
						<string>2</string>
						<fret>0</fret>
					</technical>
				</notations>
			</note>
			<note>
				<pitch>
					<step>E</step>
					<octave>2</octave>
				</pitch>
				<duration>60</duration>
				<voice>1</voice>
				<type>16th</type>
				<stem>up</stem>
				<beam number="2">continue</beam>
				<notations>
					<technical>
						<string>2</string>
						<fret>2</fret>
					</technical>
				</notations>
			</note>
			<note>
				<pitch>
					<step>C</step>
					<octave>2</octave>
				</pitch>
				<duration>60</duration>
				<voice>1</voice>
				<type>16th</type>
				<stem>up</stem>
				<beam number="2">continue</beam>
				<notations>
					<technical>
						<string>3</string>
						<fret>5</fret>
					</technical>
				</notations>
			</note>
			<note>
				<pitch>
					<step>A</step>
					<octave>1</octave>
				</pitch>
				<duration>60</duration>
				<voice>1</voice>
				<type>16th</type>
				<stem>up</stem>
				<beam number="2">end</beam>
				<notations>
					<technical>
						<string>3</string>
						<fret>2</fret>
					</technical>
				</notations>
			</note>
			<note>
				<pitch>
					<step>E</step>
					<octave>1</octave>
				</pitch>
				<duration>240</duration>
				<voice>2</voice>
				<type>quarter</type>
				<stem>down</stem>
				<notations>
					<technical>
						<string>4</string>
						<fret>4</fret>
					</technical>
				</notations>
			</note>
		</measure>
		<measure number="2">
			<note>
				<pitch>
					<step>E</step>
					<octave>2</octave>
				</pitch>
				<duration>60</duration>
				<voice>1</voice>
				<type>16th</type>
				<stem>up</stem>
				<beam number="2">begin</beam>
				<notations>
					<technical>
						<string>2</string>
						<fret>2</fret>
					</technical>
				</notations>
			</note>
			<note>
				<pitch>
					<step>C</step>
					<octave>2</octave>
				</pitch>
				<duration>60</duration>
				<voice>1</voice>
				<type>16th</type>
				<stem>up</stem>
				<beam number="2">continue</beam>
				<notations>
					<technical>
						<string>3</string>
						<fret>5</fret>
					</technical>
				</notations>
			</note>
			<note>
				<pitch>
					<step>D</step>
					<octave>2</octave>
				</pitch>
				<duration>60</duration>
				<voice>1</voice>
				<type>16th</type>
				<stem>up</stem>
				<beam number="2">continue</beam>
				<notations>
					<technical>
						<string>2</string>
						<fret>0</fret>
					</technical>
				</notations>
			</note>
			<note>
				<pitch>
					<step>D</step>
					<octave>2</octave>
				</pitch>
				<duration>60</duration>
				<voice>1</voice>
				<type>16th</type>
				<stem>up</stem>
				<beam number="2">end</beam>
				<notations>
					<technical>
						<string>2</string>
						<fret>0</fret>
					</technical>
				</notations>
			</note>
			<note>
				<pitch>
					<step>C</step>
					<octave>2</octave>
				</pitch>
				<duration>60</duration>
				<voice>1</voice>
				<type>16th</type>
				<stem>up</stem>
				<beam number="2">begin</beam>
				<notations>
					<technical>
						<string>3</string>
						<fret>5</fret>
					</technical>
				</notations>
			</note>
			<note>
				<pitch>
					<step>A</step>
					<octave>1</octave>
				</pitch>
				<duration>60</duration>
				<voice>1</voice>
				<type>16th</type>
				<stem>up</stem>
				<beam number="2">continue</beam>
				<notations>
					<technical>
						<string>3</string>
						<fret>2</fret>
					</technical>
				</notations>
			</note>
			<note>
				<pitch>
					<step>C</step>
					<octave>2</octave>
				</pitch>
				<duration>60</duration>
				<voice>1</voice>
				<type>16th</type>
				<stem>up</stem>
				<beam number="2">continue</beam>
				<notations>
					<technical>
						<string>3</string>
						<fret>5</fret>
					</technical>
				</notations>
			</note>
			<note>
				<pitch>
					<step>A</step>
					<octave>1</octave>
				</pitch>
				<duration>60</duration>
				<voice>1</voice>
				<type>16th</type>
				<stem>up</stem>
				<beam number="2">end</beam>
				<notations>
					<technical>
						<string>3</string>
						<fret>2</fret>
					</technical>
				</notations>
			</note>
			<note>
				<pitch>
					<step>C</step>
					<octave>2</octave>
				</pitch>
				<duration>60</duration>
				<voice>1</voice>
				<type>16th</type>
				<stem>up</stem>
				<beam number="2">begin</beam>
				<notations>
					<technical>
						<string>3</string>
						<fret>5</fret>
					</technical>
				</notations>
			</note>
			<note>
				<pitch>
					<step>B</step>
					<octave>1</octave>
				</pitch>
				<duration>180</duration>
				<voice>1</voice>
				<type>eighth</type>
				<dot/>
				<stem>up</stem>
				<beam number="1">end</beam>
				<notations>
					<technical>
						<string>3</string>
						<fret>4</fret>
					</technical>
				</notations>
			</note>
		</measure>
		<measure number="3">
			<forward>
				<duration>60</duration>
			</forward>
			<note>
				<pitch>
					<step>B</step>
					<octave>1</octave>
				</pitch>
				<duration>60</duration>
				<voice>1</voice>
				<type>16th</type>
				<stem>up</stem>
				<beam number="2">begin</beam>
				<notations>
					<technical>
						<string>3</string>
						<fret>4</fret>
					</technical>
				</notations>
			</note>
			<note>
				<pitch>
					<step>E</step>
					<octave>2</octave>
				</pitch>
				<duration>60</duration>
				<voice>1</voice>
				<type>16th</type>
				<stem>up</stem>
				<beam number="2">continue</beam>
				<notations>
					<technical>
						<string>2</string>
						<fret>2</fret>
					</technical>
				</notations>
			</note>
			<note>
				<pitch>
					<step>C</step>
					<octave>2</octave>
				</pitch>
				<duration>60</duration>
				<voice>1</voice>
				<type>16th</type>
				<stem>up</stem>
				<beam number="2">end</beam>
				<notations>
					<technical>
						<string>3</string>
						<fret>5</fret>
					</technical>
				</notations>
			</note>
			<note>
				<pitch>
					<step>E</step>
					<octave>2</octave>
				</pitch>
				<duration>60</duration>
				<voice>1</voice>
				<type>16th</type>
				<stem>up</stem>
				<beam number="2">begin</beam>
				<notations>
					<technical>
						<string>2</string>
						<fret>2</fret>
					</technical>
				</notations>
			</note>
			<note>
				<pitch>
					<step>E</step>
					<octave>2</octave>
				</pitch>
				<duration>60</duration>
				<voice>1</voice>
				<type>16th</type>
				<stem>up</stem>
				<beam number="2">continue</beam>
				<notations>
					<technical>
						<string>2</string>
						<fret>2</fret>
					</technical>
				</notations>
			</note>
			<note>
				<pitch>
					<step>E</step>
					<octave>2</octave>
				</pitch>
				<duration>60</duration>
				<voice>1</voice>
				<type>16th</type>
				<stem>up</stem>
				<beam number="2">continue</beam>
				<notations>
					<technical>
						<string>2</string>
						<fret>2</fret>
					</technical>
				</notations>
			</note>
			<note>
				<pitch>
					<step>D</step>
					<octave>2</octave>
				</pitch>
				<duration>60</duration>
				<voice>1</voice>
				<type>16th</type>
				<stem>up</stem>
				<beam number="2">end</beam>
				<notations>
					<technical>
						<string>2</string>
						<fret>0</fret>
					</technical>
				</notations>
			</note>
			<note>
				<pitch>
					<step>C</step>
					<octave>2</octave>
				</pitch>
				<duration>60</duration>
				<voice>1</voice>
				<type>16th</type>
				<stem>up</stem>
				<beam number="2">begin</beam>
				<notations>
					<technical>
						<string>3</string>
						<fret>5</fret>
					</technical>
				</notations>
			</note>
			<note>
				<pitch>
					<step>D</step>
					<octave>2</octave>
				</pitch>
				<duration>60</duration>
				<voice>1</voice>
				<type>16th</type>
				<stem>up</stem>
				<beam number="2">continue</beam>
				<notations>
					<technical>
						<string>2</string>
						<fret>0</fret>
					</technical>
				</notations>
			</note>
			<note>
				<pitch>
					<step>E</step>
					<octave>2</octave>
				</pitch>
				<duration>60</duration>
				<voice>1</voice>
				<type>16th</type>
				<stem>up</stem>
				<beam number="2">continue</beam>
				<notations>
					<technical>
						<string>2</string>
						<fret>2</fret>
					</technical>
				</notations>
			</note>
			<note>
				<pitch>
					<step>C</step>
					<octave>2</octave>
				</pitch>
				<duration>60</duration>
				<voice>1</voice>
				<type>16th</type>
				<stem>up</stem>
				<beam number="2">end</beam>
				<notations>
					<technical>
						<string>3</string>
						<fret>5</fret>
					</technical>
				</notations>
			</note>
			<note>
				<pitch>
					<step>A</step>
					<octave>1</octave>
				</pitch>
				<duration>60</duration>
				<voice>1</voice>
				<type>16th</type>
				<stem>up</stem>
				<beam number="2">begin</beam>
				<notations>
					<technical>
						<string>3</string>
						<fret>2</fret>
					</technical>
				</notations>
			</note>
			<note>
				<pitch>
					<step>E</step>
					<octave>1</octave>
				</pitch>
				<duration>180</duration>
				<voice>1</voice>
				<type>eighth</type>
				<dot/>
				<stem>up</stem>
				<beam number="1">end</beam>
				<notations>
					<technical>
						<string>4</string>
						<fret>4</fret>
					</technical>
				</notations>
			</note>
		</measure>
		<measure number="4">
			<note>
				<pitch>
					<step>E</step>
					<octave>1</octave>
				</pitch>
				<duration>60</duration>
				<voice>1</voice>
				<type>16th</type>
				<stem>up</stem>
				<beam number="2">begin</beam>
				<notations>
					<technical>
						<string>4</string>
						<fret>4</fret>
					</technical>
				</notations>
			</note>
			<note>
				<pitch>
					<step>G</step>
					<octave>1</octave>
				</pitch>
				<duration>60</duration>
				<voice>1</voice>
				<type>16th</type>
				<stem>up</stem>
				<beam number="2">continue</beam>
				<notations>
					<technical>
						<string>3</string>
						<fret>0</fret>
					</technical>
				</notations>
			</note>
			<note>
				<pitch>
					<step>E</step>
					<octave>1</octave>
				</pitch>
				<duration>60</duration>
				<voice>1</voice>
				<type>16th</type>
				<stem>up</stem>
				<beam number="2">continue</beam>
				<notations>
					<technical>
						<string>4</string>
						<fret>4</fret>
					</technical>
				</notations>
			</note>
			<note>
				<pitch>
					<step>G</step>
					<octave>1</octave>
				</pitch>
				<duration>60</duration>
				<voice>1</voice>
				<type>16th</type>
				<stem>up</stem>
				<beam number="2">end</beam>
				<notations>
					<technical>
						<string>3</string>
						<fret>0</fret>
					</technical>
				</notations>
			</note>
			<note>
				<pitch>
					<step>A</step>
					<octave>1</octave>
				</pitch>
				<duration>60</duration>
				<voice>1</voice>
				<type>16th</type>
				<stem>up</stem>
				<beam number="2">begin</beam>
				<notations>
					<technical>
						<string>3</string>
						<fret>2</fret>
					</technical>
				</notations>
			</note>
			<note>
				<pitch>
					<step>C</step>
					<octave>2</octave>
				</pitch>
				<duration>60</duration>
				<voice>1</voice>
				<type>16th</type>
				<stem>up</stem>
				<beam number="2">continue</beam>
				<notations>
					<technical>
						<string>3</string>
						<fret>5</fret>
					</technical>
				</notations>
			</note>
			<note>
				<pitch>
					<step>E</step>
					<octave>2</octave>
				</pitch>
				<duration>60</duration>
				<voice>1</voice>
				<type>16th</type>
				<stem>up</stem>
				<beam number="2">continue</beam>
				<notations>
					<technical>
						<string>2</string>
						<fret>2</fret>
					</technical>
				</notations>
			</note>
			<note>
				<pitch>
					<step>D</step>
					<octave>2</octave>
				</pitch>
				<duration>60</duration>
				<voice>1</voice>
				<type>16th</type>
				<stem>up</stem>
				<beam number="2">end</beam>
				<notations>
					<technical>
						<string>2</string>
						<fret>0</fret>
					</technical>
				</notations>
			</note>
			<note>
				<pitch>
					<step>C</step>
					<octave>2</octave>
				</pitch>
				<duration>60</duration>
				<voice>1</voice>
				<type>16th</type>
				<stem>up</stem>
				<beam number="2">begin</beam>
				<notations>
					<technical>
						<string>3</string>
						<fret>5</fret>
					</technical>
				</notations>
			</note>
			<note>
				<pitch>
					<step>A</step>
					<octave>1</octave>
				</pitch>
				<duration>180</duration>
				<voice>1</voice>
				<type>eighth</type>
				<dot/>
				<stem>up</stem>
				<beam number="1">end</beam>
				<notations>
					<technical>
						<string>3</string>
						<fret>2</fret>
					</technical>
				</notations>
			</note>
		</measure>
		<measure number="5">
		</measure>
		<measure number="6">
		</measure>
		<measure number="7">
		</measure>
		<measure number="8">
		</measure>
		<measure number="9">
		</measure>
		<measure number="10">
		</measure>
		<measure number="11">
		</measure>
		<measure number="12">
		</measure>
		<measure number="13">
		</measure>
		<measure number="14">
		</measure>
		<measure number="15">
		</measure>
		<measure number="16">
		</measure>
	</part>
</score-partwise>
