<?xml version="1.0" encoding="UTF-8" standalone="no"?>
<!DOCTYPE svg PUBLIC "-//W3C//DTD SVG 1.1//EN" "http://www.w3.org/Graphics/SVG/1.1/DTD/svg11.dtd">
<svg width="100%" height="100%" viewBox="0 0 1024 1024" version="1.1" xmlns="http://www.w3.org/2000/svg" xmlns:xlink="http://www.w3.org/1999/xlink" xml:space="preserve" xmlns:serif="http://www.serif.com/" style="fill-rule:evenodd;clip-rule:evenodd;stroke-linecap:round;stroke-linejoin:round;stroke-miterlimit:1.5;">
    <g id="Layer1">
        <path d="M510.959,57.025L511.509,975.463" style="fill:none;stroke:black;stroke-width:27.08px;"/>
        <path d="M516.949,67.107C516.949,52.853 533.118,43.754 545.343,39.93C581.564,28.6 648.525,14.296 680.263,46.635C696.368,63.045 695.001,102.069 698.496,105.623C700.71,107.875 703.731,101.7 706.837,101.132C714.67,99.698 723.72,100.747 731.703,100.747C761.811,100.747 803.314,106.506 814.535,138.786C823.88,165.667 804.808,201.189 790.414,221.613C784.347,230.221 777.032,244.144 765.217,240.309C764.942,240.22 765.794,240.309 766.083,240.309C771.2,240.309 776.171,238.479 781.017,236.971C791.426,233.731 802.363,233.01 813.168,233.01C823.098,233.01 833.355,232.286 843.255,233.01C856.699,233.994 907.275,258.889 913.411,271.56C937.594,321.491 911.723,340.424 870.983,368.163C862.521,373.925 838.431,395.923 827.192,390.616C825.956,390.032 829.927,390.616 831.294,390.616L844.234,390.616C856.232,390.616 868.478,391.125 880.302,393.501C910.951,399.663 974.764,428.112 979.479,464.353C981.118,476.949 983.069,492.736 979.805,505.151C970.652,539.973 934.232,582.77 899.416,600.178C881.19,609.291 857.665,611.706 837.606,616.791C831.702,618.288 824.918,613.137 821.611,613.137C819.238,613.137 826.374,612.856 828.73,613.137C832.314,613.564 836.051,614.624 839.523,615.613C850.793,618.825 861.499,622.973 871.757,628.893C893.966,641.711 927.996,691.351 917.022,718.562C908.371,740.014 860.883,766.021 840.983,777.224C830.531,783.108 820.393,792.175 808.141,786.003C797.29,780.536 782.335,776.397 769.835,776.397C765.207,776.397 759.639,777.164 755.255,776.042C753.158,775.504 746.594,776.042 748.759,776.042C772.237,776.042 804.169,783.091 821.436,800.475C846.523,825.734 857.741,870.807 829.903,898.519C810.221,918.11 767.252,931.618 739.922,931.618C731.461,931.618 723.268,928.922 716.185,924.29C714.535,923.211 707.119,913.213 706.983,913.477C703.922,919.399 711.617,948.965 708.01,952.572C692.091,968.491 657.939,983.298 634.749,987.823C594.198,995.735 538.716,988.287 512.219,962.217C511.184,961.199 508.647,963.274 508.088,963.828C500.412,971.429 490.806,982.179 479.83,984.309C451.101,989.885 417.052,1006.05 386.326,998.338C373.238,995.055 339.301,973.693 335.231,960.796C332.145,951.016 329.492,930.181 322.628,923.317C322.052,922.741 322.16,929.967 322.029,930.592C321.019,935.408 317.084,940.341 313.713,943.682C304.28,953.029 289.339,955.635 275.917,953.375C216.852,943.428 149.888,888.161 181.971,823.428C184.658,818.007 187.693,800.464 191.411,797.711C197.378,793.292 205.822,797.206 212.122,794.012" style="fill:none;stroke:black;stroke-width:27.08px;"/>
        <path d="M211.83,797.453C149.267,797.453 99.912,762.545 99.912,695.132" style="fill:none;stroke:black;stroke-width:27.08px;"/>
        <path d="M100.234,689.224C100.234,683.411 102.621,676.18 106.637,672.1" style="fill:none;stroke:black;stroke-width:27.08px;"/>
        <path d="M109.659,665.837C109.659,656.063 162.705,630.086 171.766,628.84C179.022,627.842 185.283,624.272 192.063,622.129C194.575,621.336 201.123,620.731 199.26,618.869C196.838,616.447 181.444,620.484 178.842,620.484C157.435,620.484 136.589,631.9 114.905,628.256C74.407,621.45 27.126,548.949 37.363,507.72C47.388,467.346 102.681,420.046 145.173,412.815C172.359,408.189 201.909,414.655 228.964,414.655C231.431,414.655 224.029,414.655 221.562,414.655C217.298,414.655 211.697,413.089 207.951,411.21C194.712,404.567 182.554,396.755 170.127,388.45" style="fill:none;stroke:black;stroke-width:27.08px;"/>
        <path d="M165.348,394.051C160.761,394.051 156.306,389.232 152.633,386.854C119.658,365.514 105.58,300.211 135.401,270.241C158.099,247.43 205.917,239.55 237.017,244.144C249.493,245.987 263.314,249.239 275.684,249.239C278.24,249.239 270.531,248.715 268.156,247.769C263.37,245.862 258.224,243.903 253.718,241.341C241.013,234.118 230.545,224.827 218.438,216.869C214.723,214.427 214.685,212.593 214.204,208.801C214.062,207.679 208.808,201.527 207.718,199.355C196.794,177.599 190.34,145.592 215.358,129.939C237.326,116.194 266.559,111.282 292.204,111.282C298.521,111.282 303.526,110.994 307.864,115.331C308.458,115.925 314.019,123.733 314.676,123.195C315.592,122.446 314.177,120.883 313.893,119.735C310.592,106.387 314.479,88.67 319.401,76.202C322.107,69.35 330.35,62.714 336.365,58.723C339.469,56.663 342.212,49.3 346.058,46.231C361.719,33.735 381.041,29.651 399.577,23.375C418.243,17.054 463.807,15.221 481.577,26.708C490.18,32.27 497.908,39.352 504.336,45.292C505.672,46.527 508.216,58.976 506.813,57.107" style="fill:none;stroke:black;stroke-width:27.08px;"/>
        <path d="M720.238,248.757C729.454,248.757 740.175,244.235 749.29,241.925C750.683,241.572 764.344,239.724 763.26,240.791" style="fill:none;stroke:black;stroke-width:27.08px;"/>
        <path d="M782.633,398.071C792.164,398.071 812.025,399.525 820.886,395.059C822.856,394.065 827.309,391.326 829.504,391.326" style="fill:none;stroke:black;stroke-width:27.08px;"/>
        <path d="M191.324,814.129C191.324,811.883 206.503,806.038 209.62,802.874C211.249,801.22 212.112,796.419 213.771,794.708C221.537,786.703 259.343,772.129 268.389,781.175" style="fill:none;stroke:black;stroke-width:27.08px;"/>
        <path d="M453.766,23.593C442.477,23.593 428.617,20.97 419.059,28.479C390.902,50.603 394.541,139.203 410.677,168.269C420.435,185.847 432.202,205.315 435.141,225.737C438.364,248.137 427.307,292.804 398.967,292.804" style="fill:none;stroke:black;stroke-width:27.08px;"/>
        <path d="M159.452,486.791C177.056,461.125 223.173,444.372 249.559,465.276C260.945,474.296 259.243,496.965 275.283,502.488C284.44,505.641 294.749,496.989 303.445,495.789C327.8,492.428 385.25,489.969 391.508,520.166C394.723,535.677 394.441,604.17 386.334,620.262C382.265,628.338 370.703,628.464 364.284,634.987C345.317,654.264 343.887,678.105 350.271,703.641C356.893,730.13 396.818,731.668 417.496,731.668C423.695,731.668 448.221,732.424 448.221,720.67" style="fill:none;stroke:black;stroke-width:27.08px;"/>
        <path d="M564.086,986.687C600.581,986.687 623.379,955.795 616.245,918.389C613.955,906.385 611.295,887.896 615.095,875.574C618.679,863.955 636.487,862.658 645.397,855.915C665.769,840.496 661.9,809.261 655.458,788.877C648.607,767.199 568.842,737.696 568.842,771.16" style="fill:none;stroke:black;stroke-width:27.08px;"/>
        <path d="M696.503,484.901C687.506,484.901 677.539,480.56 668.538,482.795C643.153,489.098 622.602,527.117 640.069,550.405C652.176,566.549 665.227,556.376 669.769,580.395C673.576,600.523 662.72,668.22 678.046,678.268C726.597,710.102 796.507,685.863 850.744,694.903C865.912,697.431 882.522,702.655 894.573,708.681C900.381,711.585 901.188,731.154 894.241,731.154" style="fill:none;stroke:black;stroke-width:27.08px;"/>
        <path d="M442.797,466.502C442.797,443.642 435.882,410.866 446.129,389.899C457.829,365.96 491.812,370.206 514.61,370.206C542.065,370.206 567.655,372.317 592.257,384.618C604.221,390.6 612.907,404.422 622.064,413.578C642.577,434.091 673.994,426.177 686.048,401.916C690.374,393.21 695.91,384.927 699.913,376.024C706.655,361.029 706.616,346.43 706.616,330.141" style="fill:none;stroke:black;stroke-width:27.08px;"/>
    </g>
</svg>
