<?xml version="1.0" encoding="UTF-8" standalone="no"?>
<!DOCTYPE svg PUBLIC "-//W3C//DTD SVG 1.1//EN" "http://www.w3.org/Graphics/SVG/1.1/DTD/svg11.dtd">
<svg width="100%" height="100%" viewBox="0 0 11 11" version="1.1" xmlns="http://www.w3.org/2000/svg" xmlns:xlink="http://www.w3.org/1999/xlink" xml:space="preserve" xmlns:serif="http://www.serif.com/" style="fill-rule:evenodd;clip-rule:evenodd;stroke-linejoin:round;stroke-miterlimit:2;">
    <g transform="matrix(0.0266784,0,0,0.0267205,0.25548,-0.355055)">
        <path d="M384,224C384,265.833 371.792,303.458 347.375,336.875C322.958,370.292 291.417,393.417 252.75,406.25C248.25,407.083 244.958,406.5 242.875,404.5C240.792,402.5 239.75,400 239.75,397L239.75,344.25C239.75,328.083 235.417,316.25 226.75,308.75C236.25,307.75 244.792,306.25 252.375,304.25C259.958,302.25 267.792,299 275.875,294.5C283.958,290 290.708,284.458 296.125,277.875C301.542,271.292 305.958,262.542 309.375,251.625C312.792,240.708 314.5,228.167 314.5,214C314.5,193.833 307.917,176.667 294.75,162.5C300.917,147.333 300.25,130.333 292.75,111.5C288.083,110 281.333,110.917 272.5,114.25C263.667,117.583 256,121.25 249.5,125.25L240,131.25C224.5,126.917 208.5,124.75 192,124.75C175.5,124.75 159.5,126.917 144,131.25C141.333,129.417 137.792,127.167 133.375,124.5C128.958,121.833 122,118.625 112.5,114.875C103,111.125 95.833,110 91,111.5C83.667,130.333 83.083,147.333 89.25,162.5C76.083,176.667 69.5,193.833 69.5,214C69.5,228.167 71.208,240.667 74.625,251.5C78.042,262.333 82.417,271.083 87.75,277.75C93.083,284.417 99.792,290 107.875,294.5C115.958,299 123.792,302.25 131.375,304.25C138.958,306.25 147.5,307.75 157,308.75C150.333,314.75 146.25,323.333 144.75,334.5C141.25,336.167 137.5,337.417 133.5,338.25C129.5,339.083 124.75,339.5 119.25,339.5C113.75,339.5 108.292,337.708 102.875,334.125C97.458,330.542 92.833,325.333 89,318.5C85.833,313.167 81.792,308.833 76.875,305.5C71.958,302.167 67.833,300.167 64.5,299.5L59.5,298.75C56,298.75 53.583,299.125 52.25,299.875C50.917,300.625 50.5,301.583 51,302.75C51.5,303.917 52.25,305.083 53.25,306.25C54.25,307.417 55.333,308.417 56.5,309.25L58.25,310.5C61.917,312.167 65.542,315.333 69.125,320C72.708,324.667 75.333,328.917 77,332.75L79.5,338.5C81.667,344.833 85.333,349.958 90.5,353.875C95.667,357.792 101.25,360.292 107.25,361.375C113.25,362.458 119.042,363.042 124.625,363.125C130.208,363.208 134.833,362.917 138.5,362.25L144.25,361.25C144.25,367.583 144.292,375 144.375,383.5C144.458,392 144.5,396.5 144.5,397C144.5,400 143.417,402.5 141.25,404.5C139.083,406.5 135.75,407.083 131.25,406.25C92.583,393.417 61.042,370.292 36.625,336.875C12.208,303.458 0,265.833 0,224C0,189.167 8.583,157.042 25.75,127.625C42.917,98.208 66.208,74.917 95.625,57.75C125.042,40.583 157.167,32 192,32C226.833,32 258.958,40.583 288.375,57.75C317.792,74.917 341.083,98.208 358.25,127.625C375.417,157.042 384,189.167 384,224Z" style="fill:rgb(68,68,68);fill-rule:nonzero;"/>
    </g>
</svg>
